<svg xmlns="http://www.w3.org/2000/svg" xmlns:xlink="http://www.w3.org/1999/xlink" width="426" height="250" viewBox="0 0 426 250">
    <defs>
        <linearGradient id="nt2miahnyc" x1="0%" x2="100%" y1="32.78%" y2="65.727%">
            <stop offset="0%" stop-color="#5DA4DD"/>
            <stop offset="100%" stop-color="#7ECFDF"/>
        </linearGradient>
        <rect id="bifol1jhqa" width="426" height="250" x="0" y="0" rx="12"/>
    </defs>
    <g fill="none" fill-rule="evenodd">
        <mask id="gzeznb6peb" fill="#fff">
            <use xlink:href="#bifol1jhqa"/>
        </mask>
        <use fill="#00425D" xlink:href="#bifol1jhqa"/>
        <g mask="url(#gzeznb6peb)">
            <g>
                <rect width="426" height="250" fill="url(#nt2miahnyc)" rx="12"/>
                <g>
                    <g fill-rule="nonzero">
                        <path fill="#1588AE" d="M18.115 41.017L0 38.395 0 23.863 18.115 23.863z" transform="translate(115 103)"/>
                        <path fill="#2F9A87" d="M44.899 21.038L21.007 21.038 21.015 3.46 44.899 0.001z" transform="translate(115 103)"/>
                        <path fill="#F4B459" d="M44.899 44.898L20.998 41.437 21.026 23.866 44.899 23.866z" transform="translate(115 103)"/>
                        <path fill="#E2574C" d="M18.115 21.038L0 21.038 0 6.504 18.115 3.881z" transform="translate(115 103)"/>
                    </g>
                    <text fill="#FFF" font-family="Roboto-Bold, Roboto" font-size="30" font-weight="bold" transform="translate(115 103)">
                        <tspan x="65" y="33">Microsoft</tspan>
                    </text>
                </g>
                <g fill-rule="nonzero">
                    <path fill="#FFF" d="M57.07 17.093c-.889 0-1.776.088-2.647.264-.656-3.277-2.779-6.072-5.76-7.586-2.98-1.513-6.49-1.576-9.523-.172C36.395 2.037 28.04-1.867 20.48.879c-7.562 2.744-11.466 11.1-8.72 18.661C5.134 19.75-.099 25.232 0 31.858c.1 6.627 5.495 11.949 12.122 11.96h44.946c7.38 0 13.363-5.983 13.363-13.363s-5.983-13.362-13.363-13.362z" transform="translate(177 22)"/>
                    <path fill="#FF5722" d="M11.25 0L0 4.375 0 16.25 3.75 15 3.75 5 11.25 3.75 11.25 17.555 0 16.25 11.25 20 17.5 18.125 17.5 1.875z" transform="translate(177 22) translate(22 16)"/>
                </g>
                <path fill="#FFF" fill-rule="nonzero" d="M81.07 193.093c-.889 0-1.776.088-2.647.264-.656-3.277-2.779-6.072-5.76-7.586-2.98-1.513-6.49-1.576-9.523-.172-2.745-7.562-11.1-11.466-18.661-8.72-7.562 2.744-11.466 11.1-8.72 18.661-6.624.21-11.857 5.692-11.758 12.318.1 6.627 5.495 11.949 12.122 11.96h44.946c7.38 0 13.363-5.983 13.363-13.363s-5.983-13.362-13.363-13.362z"/>
                <g>
                    <path fill="#FFF" fill-rule="nonzero" d="M57.07 17.093c-.889 0-1.776.088-2.647.264-.656-3.277-2.779-6.072-5.76-7.586-2.98-1.513-6.49-1.576-9.523-.172C36.395 2.037 28.04-1.867 20.48.879c-7.562 2.744-11.466 11.1-8.72 18.661C5.134 19.75-.099 25.232 0 31.858c.1 6.627 5.495 11.949 12.122 11.96h44.946c7.38 0 13.363-5.983 13.363-13.363s-5.983-13.362-13.363-13.362z" transform="translate(319 176)"/>
                    <g>
                        <path fill="#F05A30" d="M2.239 0L7.954 0 16.448 16.602 12.278 20 1.931 0z" transform="translate(319 176) translate(27 17)"/>
                        <path fill="#FFAF2A" d="M6.873 15.753L2.857 8.031 0 8.031 4.865 17.452z" transform="translate(319 176) translate(27 17)"/>
                    </g>
                </g>
                <g fill-rule="nonzero">
                    <g fill="#1565C0">
                        <path d="M11.978.123c-.103-.084-.238-.116-.368-.087L.337 2.637c-.199.046-.339.224-.337.427v14.743c0 .214.156.396.368.428L11.64 19.97c.237.036.458-.126.495-.363.003-.022.005-.044.005-.066V.462c0-.132-.06-.257-.163-.34z" transform="translate(49 193)"/>
                        <path d="M20.38 18.24h-8.673c-.24 0-.433-.194-.433-.433 0-.24.194-.434.433-.434h8.239V2.63h-8.239c-.24 0-.433-.194-.433-.433 0-.24.194-.434.433-.434h8.672c.24 0 .434.194.434.434v15.61c0 .24-.194.433-.434.433z" transform="translate(49 193)"/>
                    </g>
                    <path fill="#FAFAFA" d="M7.371 13.904c-.193 0-.363-.128-.416-.314L5.637 8.978 4.319 13.59c-.096.23-.36.34-.59.245-.11-.046-.198-.134-.244-.245L1.751 7.52c-.073-.228.053-.472.282-.545.228-.072.472.054.544.282l.007.024 1.318 4.611L5.221 7.28c.095-.23.359-.339.589-.244.11.046.198.134.244.244l1.317 4.612 1.318-4.61c.063-.229.298-.363.527-.3l.01.002c.23.066.363.306.297.536l-1.735 6.07c-.053.186-.223.314-.417.314z" transform="translate(49 193)"/>
                    <g fill="#1565C0">
                        <path d="M7.385.883H.447C.207.883.014.688.014.449c0-.24.194-.434.433-.434h6.938c.24 0 .433.194.433.434s-.194.434-.433.434zM7.385 3.484H.447c-.24 0-.433-.194-.433-.433 0-.24.194-.434.433-.434h6.938c.24 0 .433.194.433.434 0 .239-.194.433-.433.433zM7.385 6.086H.447c-.24 0-.433-.194-.433-.434s.194-.433.433-.433h6.938c.24 0 .433.194.433.433 0 .24-.194.434-.433.434zM7.385 8.687H.447c-.24 0-.433-.194-.433-.433 0-.24.194-.434.433-.434h6.938c.24 0 .433.194.433.434s-.194.433-.433.433zM7.385 11.289H.447c-.24 0-.433-.194-.433-.434s.194-.433.433-.433h6.938c.24 0 .433.194.433.433 0 .24-.194.434-.433.434z" transform="translate(49 193) translate(11.26 4.35)"/>
                    </g>
                </g>
                <g transform="translate(51.255 104.002)">
                    <path stroke="#FFF" stroke-dasharray="3" d="M39.738 0C6.283 6.572-6.048 27.017 2.745 61.334"/>
                    <circle cx="3.245" cy="61.498" r="2.5" fill="#FFF"/>
                </g>
                <path stroke="#FFF" stroke-dasharray="3" d="M347 119c33.455 6.572 45.786 27.017 36.993 61.334M253 38c33.455 6.572 45.786 27.017 36.993 61.334"/>
                <circle cx="383.5" cy="180.5" r="2.5" fill="#FFF"/>
                <circle cx="250.5" cy="37.5" r="2.5" fill="#FFF"/>
            </g>
        </g>
    </g>
</svg>
