<svg xmlns="http://www.w3.org/2000/svg" width="53" height="41" viewBox="0 0 53 41">
    <g fill="#FFF">
        <path d="M39.804 25.728h11.867c.735 0 1.329-.607 1.329-1.359 0-.75-.594-1.358-1.33-1.358H39.805v-3.314h2.734c2.573 0 4.67-2.143 4.67-4.772V9.987c0-.752-.595-1.36-1.33-1.36-.735 0-1.33.608-1.33 1.36v4.938c0 1.137-.907 2.065-2.02 2.065h-2.746c-.14-2.74-2.366-4.938-5.08-4.938H18.298c-2.723 0-4.939 2.188-5.08 4.938h-2.745c-1.113 0-2.02-.928-2.02-2.065V9.987c0-.752-.595-1.36-1.33-1.36-.735 0-1.33.608-1.33 1.36v4.938c0 2.629 2.097 4.772 4.67 4.772h2.734v3.314H1.329C.594 23.01 0 23.618 0 24.369c0 .752.594 1.36 1.33 1.36h11.866v2.275c0 .342.022.674.043 1.005h-2.777c-2.573 0-4.67 2.143-4.67 4.772v4.938c0 .751.595 1.359 1.33 1.359.735 0 1.33-.608 1.33-1.359v-4.938c0-1.138.907-2.065 2.02-2.065h3.275c1.556 5.18 6.28 8.958 11.845 8.958h1.816c5.566 0 10.289-3.778 11.845-8.958h3.275c1.113 0 2.02.927 2.02 2.065v4.938c0 .751.595 1.359 1.33 1.359.735 0 1.33-.608 1.33-1.359v-4.938c0-2.629-2.097-4.772-4.67-4.772h-2.777c.021-.331.043-.663.043-1.005v-2.276zm-23.96 2.287V17.289c0-1.381 1.102-2.508 2.453-2.508h6.874v23.176c-5.177-.232-9.327-4.596-9.327-9.942zm11.985 9.93V14.782h6.874c1.35 0 2.453 1.127 2.453 2.508v10.726c0 5.346-4.15 9.71-9.327 9.93z"/>
        <path d="M18.488 8.519c0 .742.607 1.341 1.357 1.341s1.358-.6 1.358-1.341c0-3.229 2.647-5.847 5.913-5.847 3.266 0 5.914 2.618 5.914 5.847 0 .742.607 1.341 1.357 1.341s1.357-.6 1.357-1.341C35.744 3.818 31.883 0 27.127 0c-4.755 0-8.639 3.818-8.639 8.519z"/>
    </g>
</svg>
