<svg xmlns="http://www.w3.org/2000/svg" width="165" height="165" viewBox="0 0 165 165">
    <g fill="#F05B30">
        <path d="M119.625 33h-4.95c-.825-3.3-1.65-5.775-3.3-8.25l3.3-3.3c1.65-1.65 1.65-4.125 0-5.775L108.9 9.9c-1.65-1.65-4.125-1.65-5.775 0L99 13.2c-2.475-1.65-5.775-2.475-8.25-3.3V4.125C90.75 1.65 89.1 0 86.625 0h-8.25C75.9 0 74.25 1.65 74.25 4.125v4.95c-3.3.825-5.775 1.65-8.25 3.3l-4.125-3.3c-1.65-1.65-4.125-1.65-5.775 0l-5.775 5.775c-1.65 1.65-1.65 4.125 0 5.775l4.125 4.125c-1.65 2.475-3.3 4.95-4.125 8.25h-4.95c-2.475 0-4.125 1.65-4.125 4.125v8.25c0 2.475 1.65 4.125 4.125 4.125h4.95c.825 3.3 1.65 5.775 3.3 8.25l-3.3 4.125c-1.65 1.65-1.65 4.125 0 5.775l5.775 5.775c1.65 1.65 4.125 1.65 5.775 0l3.3-3.3c2.475 1.65 5.775 2.475 8.25 3.3v4.95c0 2.475 1.65 4.125 4.125 4.125h8.25c2.475 0 4.125-1.65 4.125-4.125v-4.95h.825c3.3-.825 5.775-1.65 8.25-3.3l3.3 3.3c1.65 1.65 4.125 1.65 5.775 0l5.775-5.775c1.65-1.65 1.65-4.125 0-5.775l-3.3-4.125c1.65-2.475 2.475-5.775 3.3-8.25h4.95c3.3 0 4.95-1.65 4.95-4.125v-8.25c0-2.475-1.65-4.125-4.125-4.125zM82.5 61.875c-11.55 0-20.625-9.075-20.625-20.625S70.95 20.625 82.5 20.625s20.625 9.075 20.625 20.625S94.05 61.875 82.5 61.875zM71.775 109.725l-33-33c-3.3-3.3-8.25-3.3-11.55 0-1.65 1.65-2.475 3.3-2.475 5.775 0 2.475.825 4.125 2.475 5.775l14.85 14.85-4.95 4.95L16.5 87.45V49.5c0-4.95-3.3-8.25-8.25-8.25S0 44.55 0 49.5v41.25c0 2.475.825 4.125 2.475 5.775L33 127.05v13.2h-8.25V165h49.5v-49.5c0-2.475-.825-4.125-2.475-5.775zM156.75 41.25c-4.95 0-8.25 3.3-8.25 8.25v37.95l-20.625 20.625-4.95-4.95 14.85-14.85c1.65-1.65 2.475-4.125 2.475-5.775 0-2.475-.825-4.125-2.475-5.775-3.3-3.3-8.25-3.3-11.55 0l-33 33c-1.65 1.65-2.475 3.3-2.475 5.775V165h49.5v-24.75H132v-13.2l30.525-30.525c1.65-1.65 2.475-3.3 2.475-5.775V49.5c0-4.95-3.3-8.25-8.25-8.25z"/>
    </g>
</svg>
