<svg xmlns="http://www.w3.org/2000/svg" width="266" height="225" viewBox="0 0 266 225">
    <g fill="none" fill-rule="evenodd">
        <path fill="#C2D6DF" d="M53.5 149.56c-4.741-2.737-4.146-7.519 1.329-10.68l68.353-39.464c5.476-3.16 13.758-3.505 18.5-.767l70.427 40.493c4.742 2.738 4.147 7.52-1.329 10.681l-68.353 39.464c-5.475 3.161-13.758 3.505-18.498.767L53.5 149.56z" opacity=".299"/>
        <path fill="#E06C61" d="M214.489 117.662l-12.176-7.03 44.893-25.917c2.12-1.225 2.12-3.217 0-4.442l-45.862-26.477c-2.12-1.224-5.57-1.224-7.69 0l-44.892 25.918-12.177-7.029 44.893-25.92c8.833-5.099 23.207-5.099 32.042.002l45.861 26.478c8.834 5.1 8.834 13.4.001 18.5l-44.893 25.917"/>
        <path fill="#FC755F" d="M234.136 120.758c0-6.51-3.957-14.07-8.84-16.89L143.96 56.909c-2.186-1.262-4.183-1.352-5.726-.49l-.005-.003-97.116 56.434 93.915 70.767 95.676-55.532c.296-.135.581-.29.845-.491h.002-.001c1.598-1.21 2.586-3.584 2.586-6.836"/>
        <path fill="#E06C61" d="M135.028 183.617l95.676-55.532c.296-.135.581-.29.845-.491h.002l-.001-.001c1.598-1.21 2.586-3.583 2.586-6.835 0-3.107-.909-6.45-2.383-9.406L122.69 174.32l12.338 9.297"/>
        <path fill="#D9655A" d="M128.91 183.366l-81.336-46.96c-4.883-2.819-8.839-10.38-8.839-16.89 0-6.509 3.956-9.5 8.839-6.683l81.336 46.961c4.883 2.818 8.841 10.38 8.841 16.888 0 6.51-3.958 9.502-8.84 6.684"/>
        <path fill="#FFFFFE" d="M116.729 167.528l-9.78-5.64c-.972-.562-1.762-2.07-1.762-3.367 0-1.298.79-1.893 1.763-1.332l9.779 5.64c.973.563 1.761 2.07 1.761 3.367 0 1.297-.788 1.894-1.761 1.332"/>
        <g>
            <path fill="#EAE9FC" d="M40.863 28.411L52.351 34.938 64.073 28.059 64.042 25.068 63.942 25.126 63.933 24.915 69.146 24.879 69.114 21.933 74.227 21.898 74.196 18.952 79.309 18.916 79.278 15.97 84.39 15.935 84.36 12.989 89.825 12.95 91.522 11.954 93.397 4.222 93.366 1.229 92.462 4.097 84.189 2.992 40.863 28.411" transform="translate(157 152.362)"/>
            <path fill="#FC755F" d="M52.32 31.945L64.042 25.068 63.902 21.923 69.114 21.887 68.983 18.942 74.196 18.906 74.065 15.96 79.278 15.924 79.145 12.979 84.359 12.943 84.227 9.998 89.794 9.958 91.492 8.963 93.366 1.229 84.157 0 40.832 25.42 52.32 31.945" transform="translate(157 152.362)"/>
            <path fill="#E06C61" d="M60.125 27.366c-1.18-1.677-2.951-3.243-5.323-4.59-1.672-.95-3.531-1.719-5.503-2.324l-8.467 4.968 11.488 6.525 7.805-4.58" transform="translate(157 152.362)"/>
            <path fill="#EAE9FC" d="M93.052 2.528L93.366 1.229 91.821 1.024 55.215 22.502 57.142 23.597 93.052 2.528" transform="translate(157 152.362)"/>
            <path fill="#CECBC5" d="M13.097 37.85L12.971 33.596 14.332 36.468 13.097 37.85" transform="translate(157 152.362)"/>
            <path fill="#EAE9FC" d="M33.732 39.462c2.444 1.388 2.46 3.667.036 5.089-2.424 1.422-6.37 1.45-8.813.062-2.443-1.39-2.46-3.667-.036-5.09 2.424-1.421 6.37-1.448 8.813-.06zm-13.558 7.955c9.386 5.333 24.542 5.226 33.853-.236 4.667-2.74 6.978-6.304 6.94-9.85l.001.002-.13-4.506-.765.852c-1.08-2.221-3.138-4.313-6.185-6.043-9.385-5.331-24.542-5.225-33.851.237-9.31 5.463-9.249 14.213.137 19.544z" transform="translate(157 152.362)"/>
            <path fill="#F4F4F1" d="M33.605 35.211c2.444 1.39 2.46 3.667.036 5.09-2.424 1.42-6.37 1.449-8.813.06-2.443-1.387-2.46-3.666-.036-5.088 2.424-1.422 6.37-1.45 8.813-.062zm-13.557 7.956c9.385 5.331 24.542 5.225 33.851-.238 9.31-5.462 9.249-14.212-.137-19.544-9.385-5.332-24.542-5.226-33.853.237-9.309 5.462-9.248 14.213.139 19.545z" transform="translate(157 152.362)"/>
            <path fill="#EAE9FC" d="M30.93 45.495c-2.065.323-4.35.04-5.975-.882-1.752-.996-2.249-2.448-1.5-3.715l-4.252-3.372s-2.223-2.507-4.423-4.993c-3.424 5.004-1.621 10.899 5.394 14.884 3.095 1.759 6.563 2.757 10.497 3.336l.258-5.258" transform="translate(157 152.362)"/>
            <path fill="#FC755F" d="M33.605 35.211c2.444 1.39 2.46 3.667.036 5.09-2.424 1.42-6.37 1.449-8.813.06-2.443-1.387-2.46-3.666-.036-5.088 2.424-1.422 6.37-1.45 8.813-.062zm-13.557 7.956c2.107 1.196 4.504 2.12 7.062 2.77 1.806.459 3.692.781 5.611.967 7.466.727 15.435-.604 21.178-3.975 9.31-5.462 9.249-14.212-.137-19.544-9.385-5.332-24.542-5.226-33.853.237-9.309 5.462-9.248 14.213.139 19.545z" transform="translate(157 152.362)"/>
            <path fill="#E06C61" d="M15.613 33.482c.457-2.724 2.476-5.385 6.072-7.495 8.283-4.86 21.768-4.954 30.118-.21 4.15 2.357 6.247 5.466 6.294 8.593.596-3.552-1.468-7.209-6.195-9.894-8.35-4.744-21.835-4.649-30.118.21-4.166 2.446-6.22 5.63-6.171 8.796" transform="translate(157 152.362)"/>
            <path fill="#E4563F" d="M21.58 36.135c-1.69 0-3.582.587-5.558 1.745C8.996 42.003 3.326 51.984 3.384 60.131c.026 3.796 1.289 6.595 3.556 7.882 2.267 1.286 5.317.94 8.59-.98 7.028-4.123 12.697-14.105 12.64-22.25-.015-2.236-.472-4.183-1.322-5.63-.573-.978-1.326-1.736-2.235-2.254-.899-.51-1.921-.764-3.032-.764zM9.967 72.167c-1.686 0-3.271-.402-4.696-1.212C1.906 69.046.034 65.211 0 60.155c-.066-9.223 6.354-20.524 14.31-25.193 4.359-2.558 8.611-2.916 11.975-1.004 1.432.814 2.604 1.985 3.482 3.481 1.166 1.989 1.768 4.451 1.787 7.32.065 9.223-6.355 20.525-14.31 25.193-2.512 1.472-4.988 2.215-7.278 2.215z" transform="translate(157 152.362)"/>
            <path fill="#FC755F" d="M26 43.621l6.682 1.638.959-4.959c-2.424 1.422-6.37 1.45-8.813.061L26 43.621" transform="translate(157 152.362)"/>
            <path fill="#FC755F" d="M20.048 43.167c2.107 1.196 4.504 2.12 7.062 2.77 1.806.459 3.692.781 5.611.967 7.466.727 15.435-.604 21.178-3.975l-27.212-.61-6.64.848" transform="translate(157 152.362)"/>
            <path fill="#EAE9FC" d="M30.03 46.55s-2.82-.418-5.838-1.47v4.174c1.438.502 3.808 1.229 5.838 1.497 6.23.823 1.524-3.654 1.524-3.654l3.783.21-5.307-.756z" transform="translate(157 152.362)"/>
            <path fill="#EAE9FC" d="M25.763 45.583c-1.244-.367-2.599-.835-3.85-1.42-3.64-1.705.965 4.609.965 4.609s1.24.494 2.885.998v-4.187" transform="translate(157 152.362)"/>
        </g>
        <path fill="#FC755F" d="M257.304 31.92c-2.804 0-5.086 2.28-5.086 5.084 0 2.803 2.282 5.084 5.086 5.084 2.803 0 5.083-2.281 5.083-5.084 0-2.804-2.28-5.085-5.083-5.085zm0 12.429c-4.05 0-7.346-3.296-7.346-7.345 0-4.05 3.296-7.346 7.346-7.346 4.05 0 7.344 3.296 7.344 7.346 0 4.05-3.295 7.345-7.344 7.345zM3.091 166.516l2.99 6.083 6.085-2.989-2.991-6.084-6.084 2.99zm1.96 9.11l-4.985-10.14 10.139-4.985 4.986 10.139-10.14 4.985zM160.681 6.77l2.99 6.085 6.084-2.99-2.99-6.085-6.084 2.99zm1.96 9.11l-4.984-10.14L167.796.753l4.985 10.14-10.14 4.987z"/>
        <g>
            <path fill="#132529" d="M103.583 8.353c.688 4.36-1.92 8.447-5.824 9.13-3.904.681-7.626-2.299-8.313-6.659-.688-4.36 1.92-8.447 5.824-9.129 3.903-.682 7.626 2.3 8.313 6.658" transform="translate(22.548 20)"/>
            <path fill="#132529" d="M90.93 17.44s5.578 4.4 12.763-.8c-3.736 1.085-7.877-.658-7.877-.658L90.93 17.44" transform="translate(22.548 20)"/>
            <path fill="#4661AD" d="M95.607 10.939c.648 3.928-1.634 7.583-5.099 8.161-3.463.58-6.796-2.137-7.444-6.066-.647-3.929 1.635-7.583 5.099-8.162 3.463-.579 6.795 2.138 7.444 6.067" transform="translate(22.548 20)"/>
            <path fill="#132529" d="M83.903 30.365c6.56-1.76 14.525-12.93 7.454-23.972-2.675 0-9.998 2.52-9.998 2.52l2.544 21.452M66.453 6.393c-5.078 4.431-7.488 16.445 3.905 23.972 2.387-1.188 7.81-6.614 7.81-6.614L66.454 6.393" transform="translate(22.548 20)"/>
            <path fill="#F8A17A" d="M68.597 56.228c-.044 1.238-.097 2.303-.2 3.434-.094 1.116-.201 2.224-.329 3.328-.235 2.212-.556 4.408-.931 6.595-.75 4.373-1.722 8.709-2.931 12.991l-.955 3.2-1.05 3.175c-.453 1.39-1.4 3.113-2.79 4.302-1.38 1.233-3.056 1.972-4.591 2.308-3.106.655-5.744.226-8.164-.364-1.209-.315-2.367-.694-3.482-1.153-1.13-.462-2.169-.922-3.292-1.55l1.729-3.963c.943.18 2.023.396 3.035.53 1.029.131 2.045.247 3.033.29 1.955.104 3.89-.053 5.1-.572.603-.257.965-.545 1.165-.841.11-.147.18-.31.259-.499.039-.096.076-.198.107-.315l.047-.18.064-.258.798-3.033.73-3.052c.93-4.08 1.684-8.203 2.299-12.34.313-2.068.575-4.142.816-6.213.12-1.035.223-2.072.312-3.101.084-1.015.185-2.099.236-3.011l8.985.292" transform="translate(22.548 20)"/>
            <path fill="#4661AD" d="M62.27 47.563c-3.173 1.942-6.435 15.784-6.435 15.784l13.706 6.972s5.842-14.959 3.118-18.96c-2.838-4.166-5.757-6.628-10.388-3.796" transform="translate(22.548 20)"/>
            <path fill="#3E58A3" d="M60.62 67.123l-1.22-.843c-.538-3.043-.449-5.85-.037-7.408.127-.486.281-.932.458-1.338.168 2.636.421 5.81.8 9.59" transform="translate(22.548 20)"/>
            <path fill="#F8A17A" d="M43.072 88.978l-7.976-5.873 1.247 7.923s2.914 2.053 4.698 1.6l2.031-3.65" transform="translate(22.548 20)"/>
            <path fill="#4661AD" d="M60.641 53.75c.497 7.627 2.129 21.28 7.001 43.738l34.562-2.069c-1.409-14.25-1.936-23.057 3.084-52.777 0 0-7.334-1.167-14.79-1.086-5.832.064-10.608.161-15.693.94-2.262.348-4.62.81-6.752 1.271-4.572.99-7.72 5.246-7.412 9.982" transform="translate(22.548 20)"/>
            <path fill="#FFF" d="M76.573 50.647s3.638 3.782 8.02 5.147c4.384 1.365 5.201-7.46 4.54-12.553-4.054-1.05-12.56 7.406-12.56 7.406M76.145 49.671s-2.116 3.198-7.15 4.547c-5.031 1.35.582-9.142 4.498-10.968 4.654-1.038 2.652 6.421 2.652 6.421" transform="translate(22.548 20)"/>
            <path fill="#FFFFFE" d="M101.013 92.942l1.05 3.303c.133.252-.133.537-.526.562l-35.04 2.278c-.308.02-.57-.13-.601-.342l-.487-3.34c-.034-.232.222-.445.558-.467l34.476-2.24c.254-.017.484.083.57.246" transform="translate(22.548 20)"/>
            <path fill="#132529" d="M98.044 97.487l.651-.059c.13-.01.224-.124.21-.248l-.47-4.279c-.013-.125-.13-.217-.26-.206l-.651.059c-.13.012-.225.124-.21.25l.47 4.277c.013.125.13.219.26.206M69.328 99.086l.652-.06c.13-.012.224-.124.21-.249l-.47-4.277c-.013-.126-.13-.22-.26-.207l-.651.058c-.13.012-.225.125-.21.25l.47 4.278c.013.126.13.218.26.207M83.686 99.086l.652-.06c.13-.011.224-.123.21-.249l-.47-4.277c-.014-.126-.13-.219-.26-.207l-.652.06c-.13.011-.224.123-.21.249l.47 4.277c.013.126.13.218.26.207" transform="translate(22.548 20)"/>
            <path fill="#ABB5BA" d="M102.098 68.721v-.001c.033-.504.068-1.017.105-1.54-.037.524-.072 1.037-.105 1.541m.956-11.223c.201-1.989.428-4.1.684-6.357-.255 2.255-.483 4.368-.684 6.357" transform="translate(22.548 20)"/>
            <path fill="#3E58A3" d="M101.215 68.721c-.964-1.78-5.016-9.692-3.61-13.666 1.043-2.952 3.533-5.824 6.088-7.11-.11.755-.216 1.497-.318 2.224-.337 2.38-.635 4.61-.9 6.71-.48 3.797-.849 7.166-1.12 10.218-.05.552-.097 1.092-.14 1.624" transform="translate(22.548 20)"/>
            <path fill="#F8A17A" d="M88.323 27.169c-.726 5.164-1.309 12.66 2.608 15.856 0 0-7.35 4.16-13.854 12.91-6.32-8.047-2.616-11.975-2.616-11.975 5.826-1.693 5.532-3.993 4.26-7.901l9.602-8.89" transform="translate(22.548 20)"/>
            <path fill="#BEBFBB" d="M78.97 38.356c-.1-.74-.27-1.49-.482-2.239.24.805.423 1.547.51 2.234l-.028.005m-.801-3.28l1.64-1.514-1.64 1.515" transform="translate(22.548 20)"/>
            <path fill="#F9AFAA" d="M78.837 38.356c-.07-.58-.218-1.207-.41-1.886-.08-.294-.167-.587-.258-.879l1.32-1.28 4.081-3.946c.214.516 1.116 2.012.962 3.137-.322 2.368-3.566 4.405-5.695 4.854" transform="translate(22.548 20)"/>
            <path fill="#F8A17A" d="M86.613 14.947c1.317 8.594 2.05 12.201-1.106 17.512-4.746 7.987-15.11 7.804-18.851-.205-3.368-7.207-4.956-20.048 2.242-25.282 7.092-5.157 16.397-.618 17.715 7.975" transform="translate(22.548 20)"/>
            <path fill="#132529" d="M84.603 3.551C75.917-2.779 54.475-.094 57.771 7.25c3.961 8.823 10.762 9.058 10.762 9.058s-2.71-1.325-2.654-3.09c6.372-2.012 11.244 2.058 13.995-.597-1.206 5.012 6.708 9.754 6.708 9.754s3.34-2.768 5.212-7.1c1.873-4.33.386-11.478-7.19-11.723" transform="translate(22.548 20)"/>
            <path fill="#F8A17A" d="M90.891 21.017c-.273 1.753-1.37 3.221-2.611 4.069-1.867 1.274-3.583-.138-3.719-2.21-.122-1.864.702-4.774 2.89-5.228 2.157-.447 3.754 1.365 3.44 3.369M23.235 196.575L15.953 193.259 23.027 174.2 30.31 177.516 23.235 196.575" transform="translate(22.548 20)"/>
            <path fill="#132529" d="M15.835 191.897l9.213 3.132c.336.114.528.44.464.784l-1.423 7.66c-.148.796-1.04 1.292-1.81 1.015-3.193-1.146-4.676-1.862-8.728-3.239-2.493-.847-7.804-1.727-11.246-2.898-3.366-1.144-2.47-4.643-.933-4.464 6.897.8 10.14-.864 12.921-1.95.502-.196 1.052-.206 1.542-.04" transform="translate(22.548 20)"/>
            <path fill="#BEBFBB" d="M27.127 186.986L27.12 186.984 28.71 183.79 28.715 183.791 27.127 186.986" transform="translate(22.548 20)"/>
            <path fill="#F89E76" d="M27.324 186.986L19.143 184.782 20.881 180.593 28.715 183.639 27.324 186.986" transform="translate(22.548 20)"/>
            <path fill="#0B246E" d="M83.425 96.968s-46.324 3.375-48.153 19.317c-3.114 27.125-16.129 64.607-16.129 64.607l10.46 4.496s19.334-36.092 24.71-59.65c2.485-1.426 7.709-1.042 13.825-.66 15.97 1.003 38.027 2.004 33.313-29.188l-18.026 1.078" transform="translate(22.548 20)"/>
            <path fill="#3769A4" d="M31.039 186.986L17.548 182.63 18.521 177.397 33.501 182.069 31.039 186.986M13.837 192.876c-.64-1.035-1.594-2.31-2.054-2.25-.058.008-.132.038-.195.207-.116.312-.125.58-.028.82.224.57 1.067 1.008 2.277 1.223zm-2.52-.914l-.043-.096c-.15-.37-.142-.785.023-1.232.125-.337.316-.43.454-.448.874-.117 2.419 2.532 2.592 2.835l.014.243c-.031.077-.093.121-.158.114-.882-.114-2.403-.449-2.881-1.416z" transform="translate(22.548 20)"/>
            <path fill="#3769A4" d="M13.876 189.387c-.088-.174-.206-.28-.36-.322-.216-.06-.292.042-.333.14-.255.59.146 2.443.623 3.443.185-.903.409-2.467.097-3.2l-.027-.06zm-.296 3.632c-.504-1.006-1.072-3.172-.695-4.047.08-.186.277-.48.702-.36.27.076.474.281.615.606.523 1.231-.14 3.895-.168 4.008l-.129.153-.162-.073c-.053-.08-.108-.176-.163-.287z" transform="translate(22.548 20)"/>
            <path fill="#F8A17A" d="M46.263 171.651L38.981 175.799 27.12 159.17 34.401 155.022 46.263 171.651" transform="translate(22.548 20)"/>
            <path fill="#132529" d="M37 176.71l7.576-5.57c.276-.203.639-.176.875.066l5.246 5.391c.545.56.441 1.545-.204 2-2.674 1.897-4.06 2.677-7.391 5.126-2.05 1.505-5.688 5.232-8.519 7.312-2.768 2.035-5.028-.621-4.034-1.743 4.453-5.027 4.94-8.526 5.627-11.338.124-.507.42-.95.824-1.245" transform="translate(22.548 20)"/>
            <path fill="#B5B7B3" d="M41.146 164.515l-.941-1.392.006-.013.943 1.398-.008.007" transform="translate(22.548 20)"/>
            <path fill="#09181B" d="M39.879 164.611l-1.592-3.192.004-.004 1.59 3.187-.002.01" transform="translate(22.548 20)"/>
            <path fill="#F89E76" d="M33.096 169.406L30.31 165.624 37.656 161.415 39.353 163.722 39.882 164.438 33.096 169.406" transform="translate(22.548 20)"/>
            <path fill="#0B246E" d="M10.228 111.955C5.365 138.78 29.13 167.808 29.13 167.808l9.679-6.09s-7.32-20.623-10.105-39.092c2.724-1.327 8.932-.317 16.26.694 17.742 2.448 42.049 4.894 39.384-25.832l-22.135.98s-49.128-2.28-51.985 13.487z" transform="translate(22.548 20)"/>
            <path fill="#B1B3AF" d="M33.5 120.67c-.335-.009-.662-.014-.983-.014-.206 0-.41.002-.611.007v-.002c.205-.005.413-.008.626-.008.315 0 .638.006.969.018" transform="translate(22.548 20)"/>
            <path fill="#0A2164" d="M33.781 121.46l-.689-.02c-.246-.005-.486-.008-.72-.008-.159 0-.314.001-.466.004.355-1.722.675-3.42.95-5.074.725-4.36 5.103-7.753 11.02-10.376.74-.328 1.543-.507 2.36-.507h.027c-6.4 2.689-11.172 6.236-11.744 10.883-.205 1.664-.454 3.368-.738 5.099" transform="translate(22.548 20)"/>
            <path fill="#3769A4" d="M41.477 160.079L30.559 169.406 27.12 165.475 39.119 155.022 41.477 160.079M35.947 177.953c-1.386.139-3.227.518-3.544 1.152-.041.08-.076.197.016.388.17.357.388.547.667.582.66.091 1.707-.705 2.861-2.122zm-2.795 2.64l-.115-.009c-.434-.053-.776-.337-1.02-.848-.183-.386-.107-.694-.012-.883.605-1.205 4.076-1.433 4.47-1.456.098-.007.176.052.216.144l-.031.28c-.805 1.06-2.31 2.799-3.508 2.772zM34.344 174.714c-.15-.004-.277.071-.388.233-.155.226-.136.384-.103.498.205.689 1.51 1.383 2.357 1.438-.426-.805-1.216-2.077-1.816-2.165l-.05-.004zm1.957 2.682c-.865-.026-2.443-.716-2.747-1.735-.064-.216-.127-.647.177-1.089.193-.281.427-.401.694-.365 1.006.147 2.198 2.659 2.248 2.766l.018.255-.132.153c-.075.013-.162.018-.258.015z" transform="translate(22.548 20)"/>
            <path fill="#F8A17A" d="M89.457 86.017l-8.098-4.51 1.955 9.132s5.198 1.594 7.617-1.174l-1.474-3.448" transform="translate(22.548 20)"/>
            <path fill="#F8A17A" d="M109.166 52.74c.359.711.61 1.253.888 1.867.266.6.513 1.195.754 1.794.481 1.196.934 2.393 1.353 3.6.824 2.417 1.512 4.867 2.13 7.334.614 2.466 1.075 4.967 1.463 7.477.17 1.26.349 2.516.46 3.783l.17 1.897.042.511c.014.265.03.523.03.794-.01.546-.062 1.112-.186 1.688-.242 1.154-.79 2.31-1.51 3.207-.72.907-1.555 1.572-2.357 2.066-1.622.984-3.144 1.417-4.588 1.746-2.888.59-5.546.642-8.16.562-5.22-.199-10.149-1.033-15.105-2.258l.743-4.278c4.745.274 9.636.357 14.243.03 2.292-.185 4.57-.486 6.454-1.079.926-.282 1.757-.66 2.194-1.015.222-.172.322-.32.339-.388l-.023-.086-.385-2.342c-.186-1.142-.433-2.276-.643-3.413-.48-2.267-1.04-4.514-1.644-6.748-.623-2.23-1.338-4.433-2.118-6.602-.375-1.09-.78-2.165-1.204-3.225l-.651-1.57c-.206-.501-.455-1.068-.63-1.448l7.941-3.904" transform="translate(22.548 20)"/>
            <path fill="#4661AD" d="M104.753 43.273c3.578.843 8.512 12.435 8.512 12.435l-11.06 9.817s-7.567-9.09-6.358-13.617c1.26-4.716 4.824-9.597 8.906-8.635" transform="translate(22.548 20)"/>
            <path fill="#E77E75" d="M73.383 82.817L75.551 89.422 82.954 89.498 80.849 81.507 73.383 82.817" transform="translate(22.548 20)"/>
            <path fill="#FFFFFE" d="M80.573 102.283H45.03c-2.621 0-5.158-2.204-5.636-4.897l-4.219-23.767c-.477-2.693 1.277-4.898 3.899-4.898h35.545c2.622 0 5.157 2.205 5.635 4.898l4.218 23.767c.478 2.693-1.276 4.897-3.898 4.897" transform="translate(22.548 20)"/>
            <path fill="#36BAF7" d="M80.522 102.283H45.158c-2.655 0-5.225-2.204-5.709-4.897l-4.273-23.767c-.054-.3-.08-.594-.08-.88.003-2.277 1.668-4.018 4.029-4.018h35.363c2.657 0 5.225 2.205 5.71 4.898l4.272 23.767c.485 2.693-1.292 4.897-3.948 4.897" transform="translate(22.548 20)"/>
            <path fill="#F8A17A" d="M35.096 83.416l1.497 7.68 3.289-2.803L39 82.575c-.16-1.032-1.563-1.435-2.345-.675l-1.559 1.516" transform="translate(22.548 20)"/>
        </g>
    </g>
</svg>
