<svg xmlns="http://www.w3.org/2000/svg" width="260" height="225" viewBox="0 0 260 225">
    <g fill="none" fill-rule="evenodd">
        <g>
            <path fill="#FC755F" d="M126.146 195.125S102.557 182.2 96.11 177.683c-4.659-3.265-3.204-6.059-.344-15.359 2.859-9.3 9.1-26.325 9.1-26.325l-4.154-.666c.722-2.496 1.58-4.99 2.802-7.496-19.046 1.9-38.048 16.148-39.392 17.849-1.43 1.811-11.987 40.977-13.416 46.084-1.429 5.11.023 8.137 8.814 13.404 8.793 5.266 26.06 13.317 26.06 13.317l36.156-20.435c2.671 1.556 4.409 2.561 4.409 2.561v-5.492" transform="matrix(-1 0 0 1 247.625 0)"/>
            <path fill="#E06C61" d="M85.58 218.491s-24.054-13.583-30.349-17.539c-4.816-3.026-2.89-6.394-.03-15.694 2.858-9.3 9.101-26.324 9.101-26.324l-5.752-.923s-6.695 20.53-9.08 28.385c-2.386 7.856-4.01 13.963 3.15 18.48 9.735 6.138 32.96 19.107 32.96 19.107v-5.492M85.58 218.491L85.58 223.983 126.146 200.617 126.146 195.125 85.58 218.491" transform="matrix(-1 0 0 1 247.625 0)"/>
            <path fill="#FC755F" d="M147.911 5.006l-6.527-3.796c-.312-.221-.644-.413-.991-.577l-.086-.05-.004.006c-1.798-.817-3.968-.84-5.92.287L5.102 75.513C1.946 77.336 0 80.706 0 84.353v110.444c0 2.762 1.504 5.001 3.603 6.2l-.01.043 7.184 4.147 4.278-6.646-.057-.035 124.03-71.607c3.157-1.823 5.103-5.192 5.103-8.84V6.506c0-.18-.022-.354-.036-.53l3.816-.97" transform="matrix(-1 0 0 1 247.625 0)"/>
            <path fill="#E06C61" d="M7.17 88.558v110.444c0 5.496 5.95 8.933 10.711 6.184l128.316-74.081c3.16-1.823 5.105-5.193 5.105-8.84V10.71c0-5.003-5.416-8.13-9.749-5.628L12.274 79.718c-3.158 1.823-5.103 5.193-5.103 8.84" transform="matrix(-1 0 0 1 247.625 0)"/>
            <path fill="#FFF" d="M144.575 10.665L13.897 86.192 13.897 199.69 144.575 124.16 144.575 10.665" transform="matrix(-1 0 0 1 247.625 0)"/>
        </g>
        <g>
            <path fill="#0B246E" d="M41.794 154.652c1.126 2.309 2.66 4.914 4.886 5.56 1.543.45 5.877-2.392 6.746-3.532.867-1.14-1.823-56.13-3.765-59.478-2.605-4.49-23.167 1.711-22.458 9.503.904 9.96 3.818 20.555 7.279 30.43 2.076 5.928 4.52 11.788 7.312 17.517" transform="translate(0 13.125)"/>
            <path fill="#F8A17A" d="M17.088 206.005c2.073.322 4.216.14 6.214-.525l-.42-7.688c-.017-.324-.04-.664-.204-.938-.243-.402-.727-.558-1.172-.64-1.694-.314-4.27-.412-4.326 1.812-.069 2.657-.06 5.32-.092 7.979M53.703 206.005c2.097.322 4.201.14 6.104-.525-.45-2.563-.9-5.127-1.348-7.688-.056-.324-.119-.664-.316-.938-.29-.402-.786-.558-1.24-.64-1.719-.314-4.287-.412-4.074 1.812.255 2.657.584 5.32.874 7.979" transform="translate(0 13.125)"/>
            <path fill="#0B246E" d="M52.443 148.583c-2.881-4.594-9.826-7.743-12.745.227-4.45 12.155 9.667 34.89 11.767 49.57h7.56c.209-1.421-4.983-47.248-6.582-49.797M15.894 111.172c1.83 1.416 4.251 1.633 6.52 1.633 18.688 0 29.502-5.968 26.917-14.397-2.655-8.658-19.378-7.26-28.113-4.47-1.883.602-4.627 1.183-5.914 2.91-1.864 2.502-3.857 10.884.59 14.324" transform="translate(0 13.125)"/>
            <path fill="#F8A17A" d="M41.313 50.447c.628 8.552 2.366 17.314 7.355 24.41 1.075 1.53 2.638 3.117 4.543 2.923 1.114-.113 2.083-.852 2.684-1.763.6-.911.883-1.983 1.088-3.044 1.616-8.356-1.028-16.872-3.661-24.984-1.086-3.34-2.527-9.256-6.056-11.057-3.673-1.876-5.523 3.92-5.86 6.283-.34 2.394-.268 4.829-.093 7.232" transform="translate(0 13.125)"/>
            <path fill="#4661AD" d="M40.954 38.177c.17-1.426.56-3.108 1.916-3.73 1.432-.658 2.967.302 4.08 1.277 6.747 5.91 9.304 14.25 10.527 23.204l-16.178.975c-1.08-7.128-1.203-14.45-.345-21.726" transform="translate(0 13.125)"/>
            <path fill="#0B246E" d="M17.57 154.676c.638 2.299 1.613 4.893 3.669 5.537 1.423.447 6.26-2.383 7.345-3.518 1.084-1.135 9.808-47.072 8.58-50.404-1.645-4.472-5.772-7.368-10.016-8.034-6.166-.97-13.263.92-14.154 8.678-1.137 9.917-.43 20.467.957 30.3.834 5.902 2.042 11.736 3.62 17.44" transform="translate(0 13.125)"/>
            <path fill="#F8A17A" d="M68.705 51.024c1.048-.757 2.331-1.552 3.542-1.105 1.022.377 1.569 1.563 1.54 2.658-.028 1.095-13.129 22.61-18.662 24.846-2.785 1.126-4.967-.43-6.093-2.887-1.565-3.418 15.857-20.757 19.673-23.512" transform="translate(0 13.125)"/>
            <path fill="#0B246E" d="M30.969 148.756c-1.855-4.569-9.186-8.181-13.293.226-6.613 13.537-2.578 33.767-1.357 49.398h7.85c.57-1.416 7.83-47.084 6.8-49.624" transform="translate(0 13.125)"/>
            <path fill="#5B79D3" d="M50.782 40.584c1.9 2.84 1.21 6.887.737 10.171-1.014 7.025-3.401 13.832-4.802 20.803-1.4 6.973-1.76 14.369 1.176 20.947.459 1.03 1.002 2.059 1.097 3.165.096 1.107-.38 2.342-1.487 2.84-.647.294-1.405.295-2.131.29l-29.391-.192c-.652-.004-1.347-.02-1.88-.356-1.176-.742-.77-2.353-.347-3.584 2.826-8.244.412-17.123-2.152-25.436-2.545-8.25-5.67-18.439-4.261-27.064 3.458-4.263 10.526-14.161 24.542-14.161 9.833 0 17.193 10.028 18.899 12.577" transform="translate(0 13.125)"/>
            <path fill="#F8A17A" d="M2.863 59.883c1.982-7.465 6.212-14.334 12.014-19.505 1.045-.93 2.46-1.863 3.755-1.318.705.297 1.177.99 1.385 1.72.209.73.19 1.5.158 2.257-.356 8.832-1.98 17.56-3.602 26.253-.498 2.672-1.007 5.377-2.174 7.835-1.17 2.458-3.09 4.683-5.662 5.646-1.345.504-3.548.8-4.788-.156-.998-.77-1.164-2.73-1.416-3.845-.896-3.957-1.18-8.047-.842-12.088.19-2.294.581-4.573 1.172-6.8" transform="translate(0 13.125)"/>
            <path fill="#47B48C" d="M0.789 62.133L0.764 62.341 0.789 62.133" transform="translate(0 13.125)"/>
            <path fill="#4661AD" d="M20.081 38.15c-.073-1.428-.35-3.112-1.639-3.735-1.36-.658-3.887.582-5.039 1.558C6.423 41.891 2.541 49.963.777 58.926l17.596.977c1.507-7.137 2.09-14.468 1.708-21.753" transform="translate(0 13.125)"/>
            <path fill="#F8A17A" d="M27.275 56.023c1.429-.132 2.693 1.09 3.012 2.433.32 1.342-16.196 22.637-20.19 25.582-1.215.897-2.683 1.84-4.16 1.446-1.32-.35-2.1-1.645-2.57-2.88-.79-2.073-1.326-4.68-.869-6.88.316-1.519 1.752-1.991 2.908-2.86 4.253-3.195 20.956-16.757 21.87-16.84" transform="translate(0 13.125)"/>
            <path fill="#F8A17A" d="M30.812 40.247c.393-.376.957-.753 1.418-.475.295.18.413.572.39.927-.026.354-.165.687-.27 1.026-.54 1.742-.201 3.628-.093 5.456.241 4.093-.74 8.256-2.776 11.763-1.74 2.999-4.749-1.803-4.622-3.906.206-3.43.923-7.135 2.502-10.17.897-1.724 2.065-3.296 3.45-4.621" transform="translate(0 13.125)"/>
            <path fill="#1B2644" d="M44.921 15.068c-.493.797-1.12.582-1.09-.338.102-2.942.21-3.403-1.17-6.04-.757-1.453-1.003-1.575-.31-2.067 2.3-1.632 6.656 1.85 2.57 8.445" transform="translate(0 13.125)"/>
            <path fill="#F8A17A" d="M36.879 18.598c-.999-4.25-4.337-5.246-6.276-4.226-1.244 7.955-2.511 11.49-5.748 15.83 4.022 2.484 10.892 2.022 12.376 0 .06-.638.165-9.407-.352-11.604" transform="translate(0 13.125)"/>
            <path fill="#F8A17A" d="M32.27 7.763c2.978-3.59 9.023-2.945 11.207 1.489 2 4.06-.194 12.637-1.923 14.422-3.026 3.121-9.443-.454-10.337-2.795-1.31-3.428-1.452-10.098 1.052-13.116" transform="translate(0 13.125)"/>
            <path fill="#1B2644" d="M34.162 7.767c.171.661-1.3 9.447-1.527 9.347-.812-.357-1.847-2.823-3.379-2.73-.49.03-1.166.368-1.184-.675-.12-6.601-.366-6.265.743-6.87 2.442-1.335 5.042-.252 5.347.928" transform="translate(0 13.125)"/>
            <path fill="#1B2644" d="M26.956 4.18C32.394.502 41.31-.89 43.89.572c3.843 2.177 1.018 8.391-.425 8.734-.658.156-1.263-.344-1.823-.712-2.659-1.747-5.041-.411-7.04-.056-3.543.629-12.28-1.223-7.647-4.358" transform="translate(0 13.125)"/>
            <path fill="#F8A17A" d="M27.204 14.26c-.107 1.009.247 2.05.96 2.837 2.038 2.25 4.085-.792 3.613-2.686-.564-2.257-4.283-2.898-4.573-.152" transform="translate(0 13.125)"/>
            <path fill="#0B2D4E" d="M72.546 208.238c-1.07-.257-2.19-.06-3.29-.074-3.137-.037-6.185-1.93-7.625-4.738-.198-.385-.391-.812-.767-1.024-.5-.284-1.15-.073-1.593.295-.444.366-.757.867-1.164 1.276-.727.735-1.765 1.141-2.791 1.125-.862-.012-1.825-.674-2.653-.237-.73.386-.925 1.404-1.11 2.13-.32 1.249-.608 2.507-.913 3.76-.066.278-.132.568-.153.855h5.98c.278-.394.504-1.543.624-2.016.019.487.21 1.641.518 2.016H74.04c.282-.306.48-.68.517-1.094.098-1.102-.942-2.016-2.012-2.274zM26.406 209.807c.04-1.028-.397-1.882-.845-2.122-.449-.24-1.149-1.965-2.079-4.49-.424-1.156-2.792-1.478-3.975.51-.383.646-.74 1.065-1.17 1.05-.362-.011-.767-.63-1.113-.221-.306.36-.388 1.31-.465 1.987-.134 1.166-.255 2.34-.382 3.51-.028.259-.056.53-.066.797h9.878c.119-.285.2-.634.217-1.02" transform="translate(0 13.125)"/>
            <path fill="#EC977D" d="M71.306 42.799c1.294-1.156 3.101-1.891 4.767-1.425 1.553.436 2.714 1.885 3.041 3.478.329 1.593-.099 3.28-.94 4.67-.84 1.387-4.05 4.137-7.501 3.183-2.119-.587-2.452-2.048-2.284-3.991.188-2.183 1.295-4.47 2.917-5.915" transform="translate(0 13.125)"/>
            <path fill="#F8A17A" d="M71.947 47.456l-5.15.44c.03 1.302.353 2.693.58 3.753.283 1.318 5.434 1.698 5.612.645.159-.924-.57-3.374-1.042-4.838" transform="translate(0 13.125)"/>
            <path fill="#407192" d="M69.678 50.568h6.78c.4 0 .817-.32.928-.715l4.141-14.13c.113-.395-.122-.715-.524-.715h-6.778c-.402 0-.817.32-.93.714l-4.139 14.131c-.113.395.122.715.522.715" transform="translate(0 13.125)"/>
            <path fill="#10406F" d="M68.902 50.568h6.778c.4 0 .818-.32.93-.715l4.14-14.13c.113-.395-.122-.715-.522-.715h-6.78c-.4 0-.818.32-.929.714l-4.14 14.131c-.112.395.122.715.523.715" transform="translate(0 13.125)"/>
            <path fill="#FFF" d="M69.61 49.79h5.93c.352 0 .715-.288.813-.644l3.624-12.718c.098-.354-.107-.642-.458-.642h-5.931c-.351 0-.715.288-.813.642l-3.623 12.718c-.098.356.107.644.457.644" transform="translate(0 13.125)"/>
            <path fill="#F8A17A" d="M68.26 48.163c1.31-1.575 3.124-4.163 3.945-5.129.216-.255.492-.461.667-.746.174-.285.21-.696-.04-.919-.321-.285-.826-.072-1.196.149-1.8 1.074-3.715 2.278-4.497 4.203-.272.671-.357 1.466-.34 2.296 0 0 1.532.367 1.46.146M74.92 49.265c-.137.325-.3.648-.345 1-.044.35.056.746.347.947.38.262.901.093 1.315-.117 1.987-1.011 3.56-2.818 4.287-4.932.344-1.003.438-2.274-.358-2.971-.724-.637-1.9-.464-2.664.125-2.085 1.603-1.67 3.788-2.583 5.948" transform="translate(0 13.125)"/>
        </g>
        <g>
            <path fill="#FFF" d="M34.421 3.445l-6.995 3.9c-.34-.19-.679-.316-1.003-.376C22.6 6.232 8.833 3.706 2.246 3.916c-.287.006-.549.076-.768.201l6.995-3.9c.22-.125.481-.195.768-.205 6.588-.205 20.353 2.32 24.177 3.052.324.066.663.191 1.003.381" transform="translate(135 64)"/>
            <path fill="#DCE8F1" d="M61.038 56.714c-.96 2.872-2.597 12.47-11.091 17.206l-6.995 3.9c8.494-4.732 10.13-14.335 11.09-17.207 1.13-3.388.455-19.356.178-24.985-.062-1.268-.694-2.732-1.682-3.854-6.566-7.493-20.295-20.199-24.11-23.692-.328-.301-.662-.552-1.002-.737l6.995-3.9c.34.186.68.431 1.003.732 3.814 3.499 17.548 16.204 24.11 23.697.987 1.123 1.619 2.581 1.687 3.85.277 5.633.945 21.597-.183 24.99" transform="translate(135 64)"/>
            <path fill="#C5D4DD" d="M27.424 7.344c.34.187.678.435 1.005.736 3.812 3.496 17.545 16.2 24.11 23.694.987 1.124 1.62 2.584 1.684 3.852.277 5.63.948 21.597-.182 24.99-1.337 4.006-3.994 21.12-24.77 19.824-.656-.041-1.359-.269-2.061-.658-.702-.388-1.402-.937-2.055-1.622C4.439 56.472 1.889 36.474.579 31.001-.527 26.371.236 11.2.546 5.894c.07-1.195.71-1.949 1.7-1.98 6.588-.206 20.352 2.32 24.175 3.053.326.06.664.189 1.003.377" transform="translate(135 64)"/>
            <path fill="#F05B30" d="M31.463 78.004c-.655 0-1.336-.022-2.023-.064-.112-.008-.429-.053-.923-.328-.476-.263-.973-.659-1.437-1.145C8.757 57.284 5.104 39.826 3.545 32.371c-.16-.764-.296-1.41-.42-1.93-.817-3.417-.535-14.58.007-24.032 5.274.016 15.209 1.565 22.777 3.016.013.002.08.018.208.088.111.063.288.177.504.375 3.983 3.654 17.47 16.137 23.92 23.498.606.692 1.036 1.64 1.073 2.36.624 12.66.6 22.123-.06 24.108-.141.421-.284.93-.45 1.52-1.511 5.4-4.657 16.63-19.64 16.63" transform="translate(135 64)"/>
            <path fill="#CD4A24" d="M19.229 54.178c-.994 0-1.958-.494-2.491-1.375l-6.02-9.945c-.8-1.318-.333-3.008 1.041-3.773 1.375-.764 3.136-.318 3.934 1l4.615 7.623 23.693-12.38c1.395-.73 3.143-.235 3.904 1.104.759 1.339.244 3.015-1.152 3.745L20.603 53.84c-.438.229-.91.337-1.374.337" transform="translate(135 64)"/>
            <path fill="#FFF" d="M19.229 50.505c-.994 0-1.958-.493-2.491-1.374l-6.02-9.945c-.8-1.318-.333-3.008 1.041-3.774 1.375-.763 3.136-.318 3.934 1l4.615 7.624 23.693-12.38c1.395-.73 3.143-.236 3.904 1.103.759 1.34.244 3.016-1.152 3.745L20.603 50.17c-.438.229-.91.336-1.374.336" transform="translate(135 64)"/>
        </g>
        <g>
            <path fill="#CFDEE8" d="M.891 1.484c.408-.228.988-.196 1.617.163l31.784 17.607c1.259.686 2.28 2.4 2.28 3.79l-.22 65.053c0 .702-.256 1.175-.665 1.404l2.4-1.323c.409-.228.664-.719.664-1.405l.222-65.069c0-1.388-1.021-3.103-2.282-3.79L4.908.309C4.278-.05 3.7-.084 3.291.145l-2.4 1.34z" transform="translate(221 96)"/>
            <path fill="#EEE" d="M2.513 1.643C1.241.938.227 1.517.223 2.907L0 67.97c-.004 1.39 1.003 3.076 2.275 3.781l31.781 17.604c1.261.698 2.286.137 2.29-1.252l.223-65.065c.004-1.39-1.014-3.094-2.275-3.792L2.514 1.643z" transform="translate(221 96)"/>
            <path fill="#616173" d="M31.705 24.326L33.323 27.005 32.769 27.313 31.151 24.623 29.522 25.516 29.13 24.862 30.758 23.969 28.979 21.02 29.533 20.711 31.313 23.671 32.941 22.778 33.334 23.433z" transform="translate(221 96)"/>
            <path fill="#FC755F" d="M33.334 47.87c-.013 4.372-1.577 7.448-4.146 8.935-1.988 1.195-4.584 1.397-7.497.445-.994-.306-2.027-.75-3.074-1.335-.98-.546-1.96-1.182-2.9-1.92-2.902-2.248-5.485-5.273-7.485-8.628C5.61 40.983 4.006 36.09 4.02 31.642c.027-8.934 6.597-12.53 14.69-8.045 8.093 4.474 14.65 15.352 14.624 24.274" transform="translate(221 96)"/>
            <path fill="#FCCCB5" d="M21.58 35.003c.87.782 1.353 5.561 1.582 5.688.078-.045.196-.329.322-.772.091.144.188.396.23.833.082.853.162 1.98-.373 1.683-.06-.032-.125-.082-.199-.15-.024.065-.48 1.318-1.421 2.212-.738.702-1.758 1.142-3.051.484-1.216-.727-2.185-2.162-2.904-3.593-1.015-2.022-1.504-3.936-1.53-4.037-.074-.013-.14-.037-.198-.07-.536-.296-.45-1.33-.371-2.094.064-.561.242-.611.351-.584.06.254.104.4.107.408-.08-.927.28-2.008.503-2.574.064-.117.135-.226.212-.329.803 1.073 1.661 1.777 2.488 2.235 2.246 1.244 4.15.69 4.251.66" transform="translate(221 96)"/>
            <path fill="#FFF" d="M15.752 43.58l.004 1.15c-.003 1.24.908 2.754 2.032 3.377l1.886 1.044c1.125.624 2.033.117 2.036-1.122l.004-1.15-.022 10.375c-.99-.305-2.022-.755-3.072-1.336-.989-.549-1.961-1.19-2.9-1.925l.032-10.414z" transform="translate(221 96)"/>
            <path fill="#F4C3B0" d="M21.72 44.497l-.006 2.382-.004 1.15c-.003 1.24-.911 1.745-2.036 1.122l-1.886-1.044c-1.125-.623-2.035-2.137-2.032-3.376l.004-1.15.007-2.193c.718 1.43 1.687 2.866 2.903 3.593 1.293.659 2.314.218 3.05-.484" transform="translate(221 96)"/>
            <path fill="#EDEDED" d="M14.84 32.108c-.077.102-.148.211-.212.329.096-.242.163-.382.166-.39.016.022.03.042.046.061" transform="translate(221 96)"/>
            <path fill="#474756" d="M18.769 28.99c.706.392 1.422.95 2.044 1.703.59.715.8.965.816.974.034.018-.773-.995-.816-1.048.104.062 2.072 1.241 2.826 3.928.552 1.955.176 4.213-.154 5.372-.127.443-.246.726-.304.772-.248-.127-.73-4.906-1.601-5.687-.101.028-2.007.583-4.252-.661-.827-.458-1.685-1.163-2.488-2.235l-.045-.06c-.004.007-.071.147-.167.389-.223.566-.583 1.647-.503 2.574-.002-.007-.046-.154-.107-.408-.209-.876-.592-2.944.12-4.011-.04-.047-.793-.935-.399-2.659.012.012.23.23.559.413.35.194.812.333 1.227.082.527-.326 1.867-.2 3.244.562" transform="translate(221 96)"/>
            <path fill="#BF66F1" d="M15.736 43.57v10.427c-2.928-2.259-5.518-5.262-7.503-8.619.235-1.355.572-2.517 1.01-2.582.773-.129 3.734.032 6.493.774M29.194 56.805c-1.985 1.195-4.576 1.389-7.503.453l.033-10.362c2.76 2.292 5.72 5.422 6.494 6.423.404.517.74 1.937.976 3.486" transform="translate(221 96)"/>
            <path fill="#FFF" d="M32.673 67.079c.686.38 1.235 1.296 1.232 2.048l-.01 3.709c-.003.752-.554 1.058-1.241.678L4.9 58.14c-.683-.379-1.235-1.297-1.233-2.049l.01-3.708c.003-.752.56-1.056 1.242-.679L32.673 67.08zM32.646 76.266c.686.38 1.234 1.296 1.232 2.049l-.01 3.708c-.003.752-.555 1.059-1.241.678L4.873 67.328c-.683-.378-1.235-1.296-1.233-2.048l.01-3.71c.003-.75.56-1.055 1.242-.677l27.754 15.373z" transform="translate(221 96)"/>
            <path fill="#2D2D37" d="M22.438 63.974c.511.283.93.978.928 1.541-.002.572-.422.794-.934.51-.518-.287-.929-.969-.927-1.54.002-.564.415-.798.933-.51M18.397 61.736c.511.283.93.977.927 1.54 0 .572-.422.794-.933.51-.518-.286-.93-.968-.927-1.54.002-.563.415-.797.933-.51M14.356 59.497c.51.283.928.978.927 1.541-.002.572-.422.793-.933.51-.519-.287-.93-.969-.927-1.54.001-.564.414-.798.933-.51M10.314 57.259c.51.283.93.977.928 1.54-.002.572-.423.794-.934.51-.518-.286-.929-.968-.927-1.54.002-.564.415-.798.933-.51M6.273 55.02c.511.283.929.977.927 1.54-.001.572-.422.794-.933.511-.519-.287-.93-.97-.927-1.54.001-.564.414-.798.933-.511M22.438 72.987c.511.283.93.977.928 1.54-.002.573-.422.795-.934.511-.518-.287-.929-.969-.927-1.54.002-.564.415-.798.933-.51M18.397 70.748c.511.283.93.978.927 1.541 0 .572-.422.794-.933.51-.518-.286-.93-.969-.927-1.54.002-.563.415-.798.933-.51M14.356 68.51c.51.283.928.977.927 1.54-.002.572-.422.794-.933.511-.519-.287-.93-.969-.927-1.54.001-.564.414-.798.933-.51M10.314 66.271c.51.283.93.978.928 1.541-.002.572-.423.794-.934.51-.518-.287-.929-.969-.927-1.54.002-.564.415-.798.933-.51M6.273 64.033c.511.283.929.977.927 1.54-.001.572-.422.794-.933.51-.519-.286-.93-.968-.927-1.54.001-.564.414-.797.933-.51" transform="translate(221 96)"/>
        </g>
    </g>
</svg>
