<svg xmlns="http://www.w3.org/2000/svg" xmlns:xlink="http://www.w3.org/1999/xlink" width="236" height="225" viewBox="0 0 236 225">
    <defs>
        <path id="xtj4mu68ha" d="M0.622 0.339L193.703 0.339 193.703 106.207 0.622 106.207z"/>
    </defs>
    <g fill="none" fill-rule="evenodd">
        <path fill="#F05142" d="M190.003 125.62l3.527 70.674c.026.544.316 1.041.775 1.334 1.115.711 2.576-.082 2.587-1.404l.603-70.159c.007-.854-.627-1.578-1.474-1.684l-4.13-.516c-1.037-.13-1.94.71-1.888 1.754"/>
        <path fill="#FC785D" d="M196.866 124.386l-1.502 72.569c0 1.445 3.142 1.114 4.311.263l.235-.17c.432-.315.699-.807.726-1.34l3.572-70.335c.042-.853-.53-1.615-1.362-1.812l-3.805-.897c-1.11-.261-2.175.581-2.175 1.722"/>
        <path fill="#0B246E" d="M233.165 105.374L235.751 106.355 235.751 109.458 233.165 109.458z"/>
        <g transform="translate(42.056 40.493)">
            <mask id="fajwz0b9vb" fill="#fff">
                <use xlink:href="#xtj4mu68ha"/>
            </mask>
            <path fill="#F05142" d="M115.92 104.203L.622 37.283 67.198 2.06c4.52-2.391 9.954-2.284 14.378.283l110.64 64.217c2.027 1.178 1.97 4.126-.103 5.223l-61.814 32.703c-4.521 2.391-9.955 2.285-14.379-.283" mask="url(#fajwz0b9vb)"/>
        </g>
        <path fill="#FC785D" d="M157.97 141.23L42.671 74.309l66.575-35.222c4.52-2.392 9.955-2.284 14.378.283l110.64 64.217c2.028 1.178 1.97 4.126-.103 5.223l-61.815 32.703c-4.52 2.391-9.954 2.285-14.378-.283"/>
        <path fill="#D7ECFA" d="M164.456 97.118L164.451 98.6 144.695 110.081 144.7 108.598z"/>
        <path fill="#D7ECFA" d="M144.7 108.598L144.695 110.081 100.968 84.836 100.973 83.353z"/>
        <path fill="#EEF8FC" d="M164.456 97.118L144.7 108.598 100.973 83.353 120.73 71.871z"/>
        <path fill="#D7ECFA" d="M123.4 74.761L123.397 75.631 120.664 77.22 120.667 76.35zM120.666 76.35L120.664 77.22 117.967 75.663 117.97 74.793z"/>
        <path fill="#FFF" d="M123.4 74.761L120.667 76.35 117.969 74.793 120.703 73.205z"/>
        <path fill="#D7ECFA" d="M126.859 76.759L126.857 77.628 124.123 79.217 124.126 78.347z"/>
        <path fill="#D7ECFA" d="M124.126 78.347L124.124 79.217 121.427 77.66 121.429 76.79z"/>
        <path fill="#FFF" d="M126.859 76.759L124.126 78.347 121.429 76.79 124.163 75.202z"/>
        <path fill="#D7ECFA" d="M130.312 78.752L130.309 79.622 127.576 81.21 127.578 80.341z"/>
        <path fill="#D7ECFA" d="M127.579 80.341L127.576 81.21 124.879 79.653 124.882 78.783z"/>
        <path fill="#FFF" d="M130.312 78.752L127.578 80.341 124.882 78.784 127.615 77.195z"/>
        <path fill="#D7ECFA" d="M133.764 80.745L133.762 81.615 131.029 83.204 131.031 82.334zM131.031 82.334L131.029 83.203 128.332 81.646 128.335 80.777z"/>
        <path fill="#FFF" d="M133.764 80.745L131.031 82.334 128.334 80.777 131.068 79.189z"/>
        <path fill="#D7ECFA" d="M137.224 82.743L137.222 83.613 134.488 85.201 134.491 84.332z"/>
        <path fill="#D7ECFA" d="M134.491 84.331L134.489 85.201 131.791 83.644 131.794 82.774z"/>
        <path fill="#FFF" d="M137.224 82.743L134.491 84.332 131.794 82.774 134.527 81.186z"/>
        <path fill="#D7ECFA" d="M140.677 84.736L140.675 85.606 137.941 87.195 137.943 86.325zM137.943 86.324L137.941 87.194 135.244 85.638 135.247 84.768z"/>
        <path fill="#FFF" d="M140.677 84.736L137.943 86.325 135.247 84.768 137.98 83.179z"/>
        <path fill="#D7ECFA" d="M144.129 86.73L144.127 87.599 141.393 89.188 141.396 88.319z"/>
        <path fill="#D7ECFA" d="M141.396 88.318L141.394 89.188 138.697 87.631 138.699 86.761z"/>
        <path fill="#FFF" d="M144.129 86.73L141.396 88.319 138.699 86.761 141.433 85.173z"/>
        <path fill="#D7ECFA" d="M147.589 88.727L147.587 89.596 144.853 91.185 144.856 90.316zM144.855 90.316L144.853 91.185 142.149 89.624 142.152 88.754z"/>
        <path fill="#FFF" d="M147.589 88.727L144.856 90.316 142.152 88.754 144.885 87.166z"/>
        <path fill="#D7ECFA" d="M151.041 90.72L151.039 91.59 148.306 93.179 148.308 92.309zM148.308 92.309L148.306 93.178 145.609 91.621 145.611 90.752z"/>
        <path fill="#FFF" d="M151.041 90.72L148.308 92.309 145.611 90.752 148.345 89.164z"/>
        <path fill="#D7ECFA" d="M154.494 92.714L154.492 93.583 151.759 95.172 151.761 94.303zM151.761 94.302L151.759 95.171 149.061 93.615 149.064 92.745z"/>
        <path fill="#FFF" d="M154.494 92.714L151.761 94.303 149.064 92.745 151.797 91.157z"/>
        <path fill="#D7ECFA" d="M161.407 96.704L161.404 97.574 158.671 99.162 158.673 98.293z"/>
        <path fill="#D7ECFA" d="M158.673 98.293L158.671 99.162 152.514 95.608 152.517 94.739z"/>
        <path fill="#FFF" d="M161.407 96.704L158.673 98.293 152.517 94.738 155.25 93.151z"/>
        <path fill="#D7ECFA" d="M123.375 78.784L123.373 79.653 120.639 81.242 120.642 80.372z"/>
        <path fill="#D7ECFA" d="M120.642 80.372L120.64 81.242 114.483 77.687 114.485 76.818z"/>
        <path fill="#FFF" d="M123.375 78.784L120.642 80.372 114.485 76.817 117.219 75.229z"/>
        <path fill="#D7ECFA" d="M126.828 80.777L126.825 81.646 124.092 83.235 124.094 82.365z"/>
        <path fill="#D7ECFA" d="M124.094 82.366L124.092 83.235 121.395 81.678 121.398 80.809z"/>
        <path fill="#FFF" d="M126.828 80.777L124.094 82.365 121.397 80.809 124.13 79.22z"/>
        <path fill="#D7ECFA" d="M130.28 82.77L130.278 83.64 127.545 85.228 127.547 84.359zM127.547 84.359L127.544 85.228 124.848 83.671 124.85 82.802z"/>
        <path fill="#FFF" d="M130.28 82.77L127.547 84.359 124.85 82.802 127.584 81.214z"/>
        <path fill="#D7ECFA" d="M133.74 84.768L133.738 85.637 131.004 87.226 131.007 86.356zM131.006 86.356L131.004 87.226 128.307 85.669 128.309 84.799z"/>
        <path fill="#FFF" d="M133.74 84.768L131.007 86.356 128.31 84.799 131.043 83.21z"/>
        <path fill="#D7ECFA" d="M137.192 86.761L137.19 87.63 134.457 89.219 134.459 88.35zM134.459 88.35L134.456 89.219 131.76 87.662 131.762 86.792z"/>
        <path fill="#FFF" d="M137.192 86.761L134.459 88.35 131.762 86.793 134.495 85.204z"/>
        <path fill="#D7ECFA" d="M140.645 88.754L140.643 89.624 137.909 91.213 137.911 90.343zM137.911 90.343L137.909 91.212 135.212 89.656 135.215 88.786z"/>
        <path fill="#FFF" d="M140.645 88.754L137.911 90.343 135.215 88.786 137.948 87.198z"/>
        <path fill="#D7ECFA" d="M144.104 90.752L144.102 91.621 141.368 93.21 141.371 92.341z"/>
        <path fill="#D7ECFA" d="M141.371 92.341L141.369 93.21 138.665 91.649 138.667 90.779z"/>
        <path fill="#FFF" d="M144.104 90.752L141.371 92.341 138.668 90.779 141.401 89.191z"/>
        <path fill="#D7ECFA" d="M147.557 92.745L147.555 93.614 144.821 95.203 144.824 94.334z"/>
        <path fill="#D7ECFA" d="M144.824 94.334L144.821 95.203 142.125 93.646 142.127 92.776z"/>
        <path fill="#FFF" d="M147.557 92.745L144.824 94.334 142.127 92.777 144.86 91.188z"/>
        <path fill="#D7ECFA" d="M151.01 94.738L151.008 95.608 148.274 97.197 148.276 96.327zM148.276 96.327L148.274 97.196 145.577 95.64 145.58 94.77z"/>
        <path fill="#FFF" d="M151.01 94.738L148.276 96.327 145.58 94.77 148.313 93.182z"/>
        <path fill="#D7ECFA" d="M154.469 96.736L154.467 97.605 151.734 99.194 151.736 98.325z"/>
        <path fill="#D7ECFA" d="M151.736 98.325L151.734 99.194 149.03 97.633 149.032 96.764z"/>
        <path fill="#FFF" d="M154.469 96.736L151.736 98.325 149.032 96.764 151.766 95.175z"/>
        <path fill="#D7ECFA" d="M157.922 98.73L157.92 99.599 155.186 101.187 155.188 100.318z"/>
        <path fill="#D7ECFA" d="M155.188 100.318L155.186 101.187 152.489 99.631 152.492 98.76z"/>
        <path fill="#FFF" d="M157.922 98.73L155.188 100.318 152.492 98.761 155.225 97.172z"/>
        <path fill="#D7ECFA" d="M119.891 80.809L119.888 81.678 117.155 83.266 117.158 82.397zM117.157 82.397L117.155 83.266 110.998 79.712 111.001 78.843z"/>
        <path fill="#FFF" d="M119.891 80.809L117.158 82.397 111.001 78.843 113.734 77.254z"/>
        <path fill="#D7ECFA" d="M123.343 82.802L123.341 83.671 120.607 85.259 120.61 84.39z"/>
        <path fill="#D7ECFA" d="M120.61 84.39L120.607 85.26 117.911 83.703 117.913 82.834z"/>
        <path fill="#FFF" d="M123.343 82.802L120.61 84.39 117.913 82.834 120.646 81.245z"/>
        <path fill="#D7ECFA" d="M126.796 84.795L126.794 85.665 124.06 87.253 124.063 86.384z"/>
        <path fill="#D7ECFA" d="M124.063 86.384L124.06 87.253 121.363 85.696 121.366 84.827z"/>
        <path fill="#FFF" d="M126.796 84.795L124.063 86.384 121.366 84.827 124.099 83.239z"/>
        <path fill="#D7ECFA" d="M130.255 86.793L130.253 87.662 127.52 89.251 127.522 88.382zM127.522 88.381L127.52 89.251 124.823 87.694 124.825 86.824z"/>
        <path fill="#FFF" d="M130.255 86.793L127.522 88.382 124.825 86.824 127.559 85.236z"/>
        <path fill="#D7ECFA" d="M133.708 88.786L133.706 89.655 130.972 91.244 130.975 90.375z"/>
        <path fill="#D7ECFA" d="M130.975 90.375L130.973 91.244 128.275 89.688 128.278 88.817z"/>
        <path fill="#FFF" d="M133.708 88.786L130.975 90.375 128.278 88.817 131.011 87.229z"/>
        <path fill="#D7ECFA" d="M137.161 90.779L137.158 91.648 134.425 93.237 134.428 92.368zM134.427 92.368L134.425 93.237 131.728 91.681 131.73 90.81z"/>
        <path fill="#FFF" d="M137.161 90.779L134.428 92.368 131.73 90.811 134.463 89.222z"/>
        <path fill="#D7ECFA" d="M140.62 92.777L140.618 93.646 137.884 95.235 137.887 94.366z"/>
        <path fill="#D7ECFA" d="M137.887 94.365L137.885 95.235 135.181 93.674 135.183 92.804z"/>
        <path fill="#FFF" d="M140.62 92.777L137.887 94.366 135.184 92.804 137.917 91.216z"/>
        <path fill="#D7ECFA" d="M144.073 94.77L144.071 95.64 141.337 97.228 141.34 96.359zM141.339 96.359L141.337 97.228 138.64 95.672 138.642 94.801z"/>
        <path fill="#FFF" d="M144.073 94.77L141.34 96.359 138.643 94.801 141.376 93.213z"/>
        <path fill="#D7ECFA" d="M147.525 96.764L147.523 97.633 144.79 99.221 144.792 98.352z"/>
        <path fill="#D7ECFA" d="M144.792 98.352L144.79 99.221 142.093 97.665 142.095 96.794z"/>
        <path fill="#FFF" d="M147.525 96.764L144.792 98.352 142.095 96.795 144.829 95.206z"/>
        <path fill="#D7ECFA" d="M154.438 100.755L154.435 101.624 151.702 103.212 151.705 102.343zM151.704 102.343L151.702 103.212 145.546 99.658 145.548 98.789z"/>
        <path fill="#FFF" d="M154.438 100.755L151.705 102.343 145.548 98.788 148.281 97.2z"/>
        <path fill="#D7ECFA" d="M119.852 84.831L119.85 85.7 117.116 87.289 117.119 86.419z"/>
        <path fill="#D7ECFA" d="M117.119 86.419L117.116 87.289 107.508 81.741 107.51 80.871z"/>
        <path fill="#FFF" d="M119.852 84.831L117.119 86.419 107.51 80.871 110.243 79.283z"/>
        <path fill="#D7ECFA" d="M123.305 86.824L123.302 87.693 120.569 89.282 120.572 88.412z"/>
        <path fill="#D7ECFA" d="M120.572 88.412L120.569 89.282 117.872 87.725 117.874 86.855z"/>
        <path fill="#FFF" d="M123.305 86.824L120.572 88.412 117.875 86.856 120.608 85.267z"/>
        <path fill="#D7ECFA" d="M126.764 88.822L126.762 89.691 124.029 91.28 124.031 90.411zM124.031 90.41L124.028 91.279 121.332 89.723 121.334 88.853z"/>
        <path fill="#FFF" d="M126.764 88.822L124.031 90.411 121.334 88.853 124.067 87.264z"/>
        <path fill="#D7ECFA" d="M130.217 90.815L130.215 91.684 127.481 93.273 127.484 92.404zM127.483 92.404L127.481 93.273 124.784 91.716 124.787 90.846z"/>
        <path fill="#FFF" d="M130.217 90.815L127.484 92.404 124.786 90.846 127.52 89.258z"/>
        <path fill="#D7ECFA" d="M133.67 92.808L133.667 93.678 130.934 95.266 130.936 94.397z"/>
        <path fill="#D7ECFA" d="M130.936 94.397L130.934 95.266 128.237 93.709 128.24 92.839z"/>
        <path fill="#FFF" d="M133.67 92.808L130.936 94.397 128.239 92.84 130.972 91.251z"/>
        <path fill="#D7ECFA" d="M137.129 94.805L137.127 95.675 134.393 97.264 134.395 96.394z"/>
        <path fill="#D7ECFA" d="M134.396 96.394L134.393 97.263 131.69 95.703 131.692 94.833z"/>
        <path fill="#FFF" d="M137.129 94.805L134.395 96.394 131.692 94.833 134.426 93.244z"/>
        <path fill="#D7ECFA" d="M140.582 96.799L140.579 97.668 137.846 99.257 137.849 98.388z"/>
        <path fill="#D7ECFA" d="M137.849 98.388L137.846 99.257 135.149 97.701 135.151 96.83z"/>
        <path fill="#FFF" d="M140.582 96.799L137.849 98.388 135.152 96.83 137.885 95.242z"/>
        <path fill="#D7ECFA" d="M144.034 98.793L144.032 99.662 141.299 101.25 141.301 100.381z"/>
        <path fill="#D7ECFA" d="M141.301 100.381L141.299 101.25 138.602 99.694 138.604 98.824z"/>
        <path fill="#FFF" d="M144.034 98.793L141.301 100.381 138.604 98.824 141.338 97.235z"/>
        <path fill="#D7ECFA" d="M150.947 102.783L150.944 103.653 148.211 105.241 148.213 104.372zM148.213 104.371L148.211 105.241 142.055 101.687 142.057 100.818z"/>
        <path fill="#FFF" d="M150.947 102.783L148.213 104.372 142.057 100.817 144.79 99.229z"/>
        <path fill="#D7ECFA" d="M109.456 82.865L109.453 83.734 106.72 85.322 106.723 84.453z"/>
        <path fill="#D7ECFA" d="M106.722 84.453L106.72 85.323 104.023 83.766 104.026 82.897z"/>
        <path fill="#FFF" d="M109.456 82.865L106.723 84.453 104.025 82.897 106.759 81.308z"/>
        <path fill="#D7ECFA" d="M112.915 84.862L112.913 85.732 110.179 87.321 110.182 86.451z"/>
        <path fill="#D7ECFA" d="M110.182 86.45L110.18 87.32 107.483 85.763 107.485 84.894z"/>
        <path fill="#FFF" d="M112.915 84.862L110.182 86.451 107.485 84.894 110.219 83.306z"/>
        <path fill="#D7ECFA" d="M116.368 86.856L116.366 87.725 113.632 89.314 113.635 88.445zM113.634 88.444L113.632 89.314 110.935 87.757 110.938 86.887z"/>
        <path fill="#FFF" d="M116.368 86.856L113.635 88.445 110.938 86.887 113.671 85.299z"/>
        <path fill="#D7ECFA" d="M133.645 96.83L133.643 97.7 130.909 99.288 130.912 98.419zM130.911 98.419L130.909 99.288 114.388 89.75 114.39 88.881z"/>
        <path fill="#FFF" d="M133.645 96.83L130.912 98.419 114.39 88.88 117.124 87.293z"/>
        <path fill="#D7ECFA" d="M137.097 98.824L137.095 99.693 134.362 101.282 134.364 100.413zM134.364 100.412L134.362 101.281 131.665 99.725 131.667 98.855z"/>
        <path fill="#FFF" d="M137.097 98.824L134.364 100.413 131.667 98.856 134.401 97.267z"/>
        <path fill="#D7ECFA" d="M140.55 100.818L140.548 101.687 137.814 103.275 137.817 102.406z"/>
        <path fill="#D7ECFA" d="M137.817 102.406L137.815 103.275 135.117 101.719 135.12 100.849z"/>
        <path fill="#FFF" d="M140.55 100.818L137.817 102.406 135.12 100.849 137.853 99.26z"/>
        <path fill="#D7ECFA" d="M147.462 104.808L147.46 105.677 144.726 107.266 144.729 106.396z"/>
        <path fill="#D7ECFA" d="M144.729 106.396L144.727 107.265 138.57 103.712 138.573 102.842z"/>
        <path fill="#FFF" d="M147.462 104.808L144.729 106.396 138.572 102.842 141.306 101.254z"/>
        <path fill="#36BAF7" d="M167.784 120.574c-3.643-2.102-3.643-5.512 0-7.615 3.642-2.103 9.548-2.103 13.19 0 3.642 2.103 3.643 5.513 0 7.615-3.642 2.103-9.548 2.103-13.19 0z"/>
        <path fill="#36BAF7" d="M165.053 116.767L183.706 116.767 183.706 101.171 165.053 101.171z"/>
        <path fill="#FFF" d="M180.974 104.98c-3.642 2.102-9.548 2.102-13.19 0-3.643-2.103-3.643-5.513 0-7.616 3.642-2.103 9.548-2.103 13.19 0 3.642 2.103 3.642 5.513 0 7.615"/>
        <path fill="#EBEBEB" d="M181.473 102.33c-.365.506-.94.982-1.732 1.388-2.901 1.487-7.598 1.487-10.5 0-.792-.406-1.366-.882-1.724-1.388-.96-1.346-.385-2.915 1.724-3.994 2.902-1.486 7.599-1.486 10.5 0 2.11 1.08 2.685 2.648 1.732 3.994"/>
        <path fill="#544438" d="M181.473 102.33c-.365.506-.94.982-1.732 1.388-2.901 1.487-7.598 1.487-10.5 0-.792-.406-1.366-.882-1.724-1.388.358-.504.932-.98 1.724-1.387 2.902-1.487 7.599-1.487 10.5 0 .793.407 1.367.883 1.732 1.387"/>
        <path fill="#FFF" d="M104.743 73.518L81.994 60.384 114.167 41.809 136.917 54.944z"/>
        <path fill="#4661AD" d="M105.201 69.07L84.658 57.21 113.711 40.437 134.253 52.296z"/>
        <path fill="#FFF" d="M151.326 29.429L151.326 32.881 159.338 37.363 159.338 33.396z"/>
        <path fill="#D84537" d="M153.274 87.798l-14.84-8.569c-.955-.551-.955-1.93 0-2.481l16.898-9.756 19.047 10.997-16.988 9.809c-1.274.735-2.843.735-4.117 0"/>
        <path fill="#F05142" d="M129.115.1l-2.17 1.467 2.11 53.697 68.88 42.127 1.972-1.322c.306-.206.49-.551.49-.92V41.862c0-.605-.323-1.164-.846-1.466L129.735.079c-.194-.113-.434-.104-.62.021"/>
        <path fill="#FBD5CD" d="M197.09 41.74c.652.376 1.053 1.072 1.053 1.825v53.274c0 .482-.52.783-.938.542l-68.74-39.692c-1.03-.595-1.663-1.694-1.663-2.883V1.92c0-.34.368-.553.663-.383"/>
        <path fill="#FFF" d="M126.801 46.553L126.801 3.84 198.052 44.992 198.143 87.748z"/>
        <path fill="#FC785D" d="M138.757 17.374L134.505 14.919 134.505 13.866 138.757 16.321zM175.794 38.757L141.474 18.942 141.474 17.89 175.794 37.704zM190.154 47.053L178.789 40.487 178.789 39.434 190.154 46zM138.757 20.826L134.505 18.371 134.505 17.319 138.757 19.773zM175.794 42.209L141.474 22.394 141.474 21.342 175.794 41.157zM190.154 50.505L178.789 43.939 178.789 42.886 190.154 49.452zM138.757 24.278L134.505 21.824 134.505 20.771 138.757 23.226zM168.809 41.629L141.473 25.846 141.473 24.794 168.809 40.576zM190.154 53.958L171.607 43.244 171.607 42.192 190.154 52.905zM138.757 27.731L134.505 25.276 134.505 24.223 138.757 26.678zM180.756 51.979L141.474 29.299 141.474 28.246 180.756 50.926z"/>
        <path fill="#FC785D" d="M190.154 57.41L178.789 50.843 178.789 49.791 190.154 56.357zM138.757 31.183L134.505 28.728 134.505 27.675 138.757 30.13zM175.794 52.566L141.474 32.751 141.474 31.699 175.794 51.514zM190.154 60.862L178.789 54.295 178.789 53.243 190.154 59.81zM138.757 34.635L134.505 32.181 134.505 31.128 138.757 33.582zM165.9 50.317L141.473 36.204 141.473 35.151 165.9 49.264zM190.154 64.314L188.209 63.186 188.209 62.133 190.154 63.262zM185.364 61.544L178.789 57.748 178.789 56.696 185.364 60.491zM138.757 38.088L134.505 35.633 134.505 34.58 138.757 37.035zM170.548 56.442L141.473 39.656 141.473 38.603 170.548 55.389zM190.154 67.766L173.356 58.063 173.356 57.011 190.154 66.714zM138.757 41.54L134.505 39.085 134.505 38.032 138.757 40.487zM157.881 52.581L141.473 43.108 141.473 42.055 157.881 51.529zM190.154 71.219L161.079 54.427 161.079 53.374 190.154 70.167zM138.757 44.992L134.505 42.538 134.505 41.485 138.757 43.939zM175.794 66.376L141.474 46.56 141.474 45.508 175.794 65.323zM190.154 74.671L178.789 68.105 178.789 67.052 190.154 73.619z"/>
        <path fill="#FC755F" d="M47.442 219.978c0 1.658-1.165 3.676-2.602 4.505-1.436.83-2.601.157-2.601-1.502s1.165-3.676 2.601-4.506c1.437-.83 2.602-.156 2.602 1.503"/>
        <path fill="#FC755F" d="M45.305 218.648c.508 1.579.016 3.856-1.097 5.086-1.113 1.23-2.428.946-2.937-.633-.508-1.58-.016-3.857 1.097-5.086 1.113-1.23 2.428-.947 2.937.633"/>
        <path fill="#0B246E" d="M92.917 173.597s.27 8.758 1.482 11.857c1.213 3.099 4.177 2.83 6.467 2.56s8.085-4.429 10.914-7.132c2.83-2.704 8.758-2.186 13.474-8.845 4.716-6.66 0-9.488-1.483-9.623-1.482-.134-9.268 6.091-15.405 3.634l-15.45 7.549z"/>
        <path fill="#425CA3" d="M34.303 129.446s50.124-16.498 59.648-9.685c8.911 6.373 7.464 25.541 14.415 46.288.18.536.159 1.117-.07 1.635-1.07 2.43-4.994 9.043-15.506 7.323 0 0-5.828-15.175-9.788-31.018 0 0-39.047 25.162-47.946 18.638-8.9-6.523-.753-33.18-.753-33.18"/>
        <path fill="#CE5063" d="M13.838 201.129L46.783 195.326 43.788 219.848 46.783 220.596 52.586 195.326 83.286 207.961 84.97 206.153 55.768 192.331 77.857 182.222 75.423 181.1 50.945 189.455 37.985 181.1 34.675 181.848 46.409 191.582 14.586 198.696z"/>
        <path fill="#FC755F" d="M18.01 197.762c0 1.66-1.165 3.677-2.6 4.506-1.438.83-2.603.157-2.603-1.502s1.165-3.676 2.602-4.506c1.436-.83 2.601-.157 2.601 1.502"/>
        <path fill="#FC755F" d="M19.184 198.44c0 1.658-1.165 3.676-2.602 4.506-1.437.83-2.602.156-2.602-1.503 0-1.658 1.165-3.676 2.602-4.506 1.437-.829 2.602-.156 2.602 1.503M86.115 205.307c0 1.659-1.165 3.676-2.602 4.506-1.437.83-2.6.156-2.6-1.502 0-1.66 1.163-3.677 2.6-4.506 1.437-.83 2.602-.157 2.602 1.502"/>
        <path fill="#FC755F" d="M84.665 204.35c0 1.66-1.164 3.677-2.6 4.507-1.438.829-2.603.156-2.603-1.502 0-1.66 1.165-3.677 2.602-4.507 1.437-.829 2.601-.157 2.601 1.502M47.523 192.77L53.436 192.77 53.436 178.307 47.523 178.307z"/>
        <path fill="#0B246E" d="M117.31 181.093s.268 8.757 1.481 11.856c1.213 3.1 4.177 2.83 6.467 2.56 2.291-.27 8.085-4.428 10.914-7.131 2.83-2.704 8.758-2.186 13.474-8.845 4.715-6.66 0-9.489-1.482-9.623-1.482-.135-8.88 5.454-15.016 2.996l-15.839 8.187z"/>
        <path fill="#4661AD" d="M58.822 135.532s50.125-16.498 59.648-9.686c9.021 6.453 7.427 26.019 14.678 47.06 0 0-3.025 10.283-15.84 8.187 0 0-5.827-15.176-9.787-31.018 0 0-39.046 25.161-47.945 18.637-8.9-6.523-.754-33.18-.754-33.18"/>
        <path fill="#FC755F" d="M99.818 156.956c-1.765 9.545-18.029 21.207-46.316 25.45-.986.15-10.388 2-18.667.379 5.2-9.973 18.924-26.522 14.625-42.824 10.135 1.575 51.905 8.606 50.358 16.995"/>
        <path fill="#4661AD" d="M49.404 142.1l6.011 6.181c1.416 8.528 6.566 16.846 14.428 17.473l40.264-13.76v-14L49.404 142.1z"/>
        <path fill="#0B246E" d="M62.997 79.57L42.12 68.997c-2.148-1.089-4.522-1.683-6.93-1.652-4.408.056-10.81 1.528-13.316 9.05-3.988 11.962 8.925 60.574 8.925 60.574s12.97 16.044 23.224 15.284c10.254-.759 25.007-9.398 25.007-16.614 0-5.148-3.99-29.375-6.277-42.84-.97-5.708-4.59-10.613-9.755-13.23"/>
        <path stroke="#0B246E" stroke-width=".75" d="M72.808 48.854c.114 0 2.673.612 4.026.936.43.104.657.57.477.975l-.869 1.946c-.296.666-.957 1.094-1.685 1.094h-3.032"/>
        <path fill="#FF8B91" d="M45.626 67.247l2.151-13.984 27.107-15.705v10.594c0 .605-.111 1.205-.33 1.77l-.523 1.35c-.286.74-.366 1.543-.232 2.325L74 54.775c.156.909.048 1.844-.31 2.694l-2.44 5.796c-.778 1.848-2.686 2.957-4.678 2.72l-3.843-.46-1.614 8.606-15.49-6.884z"/>
        <path fill="#0B246E" d="M47.126 60.84l4.757.965c2.423.492 4.936-.182 6.786-1.821l6.433-5.696v1.557l1.031-.197c.926-.175 1.678-.851 1.951-1.753l2.484-8.197s6.931-.585 8.98-9.079c0 0-7.613-7.516-18.547-6.735-10.932.781-14.935 9.859-14.935 9.859s-2.343-.292-3.417 2.636c-.868 2.366 1.611 12.763 2.594 16.668.23.912.962 1.606 1.883 1.793"/>
        <path fill="#FF8B91" d="M64.749 57.818l.862-4.463s-.9-2.175-3-1.312c-2.1.862-1.2 6.337 0 6.487 1.2.15 2.138-.712 2.138-.712"/>
        <path fill="#36E7F7" d="M65.611 53.355L76.895 52.684 77.606 50.896 64.784 52.283z"/>
        <path fill="#FC755F" d="M57.254 159.352c1.552 15.943-14.603 28.045-29.32 21.724-13.72-5.893-23.78-18.975-26.763-41.577-3.33-25.165 1.168-41.087 4.47-48.83 1.613-3.758 5.57-5.95 9.612-5.39 31.598 4.403 39.492 56.317 39.492 56.317s1.585 8.261 2.509 17.756"/>
        <path fill="#FF8B91" d="M84.876 86.54s3.823-7.5 4.999-8.235c1.176-.734 10.88-1.029 11.763-1.176.882-.146 2.646 1.765 2.646 1.765s4.999-.147 5.588 0c.588.147.44 2.932-.883 2.936-1.323.005-3.856.787-3.856.787l-3.054 3.922s-5.147 3.382-6.03 3.382c-.88 0-7.056 1.177-7.056 1.177l-4.117-4.559zM118.247 97.17s3.823-7.5 4.999-8.235c1.176-.735 10.88-1.03 11.763-1.177.882-.147 2.646 1.765 2.646 1.765l1.874 1.17c1.181.737 1.23 2.439.09 3.24-1.966 1.38-4.17 3.236-4.17 3.236s-5.146 3.381-6.028 3.381c-.882 0-7.057 1.177-7.057 1.177l-4.117-4.558z"/>
        <path fill="#0B246E" d="M54.022 101.442l33.916 19.17c3.893 2.2 8.69 2.032 12.419-.436l25.777-18.989s-1.252-6.448-6.244-7.914c-1.036-.305-23.207 7.743-23.207 7.743-1.487.658-3.21.473-4.526-.482L66.404 81.807l-12.382 16.77"/>
        <path fill="#0B246E" d="M60.862 89.314l24.927-5.771c5.112 0 5.864 7.304 5.864 7.304l-17.189 12.182-13.602-13.715z"/>
        <path fill="#FC755F" d="M79.029 179.873c0 1.659-1.165 3.676-2.602 4.506-1.437.829-2.601.157-2.601-1.502 0-1.66 1.164-3.677 2.601-4.507 1.437-.829 2.602-.156 2.602 1.502"/>
        <path fill="#FC755F" d="M77.833 179.182c0 1.659-1.165 3.676-2.602 4.506-1.437.83-2.601.157-2.601-1.502s1.164-3.676 2.6-4.506c1.438-.83 2.603-.157 2.603 1.502"/>
        <path stroke="#FFF" stroke-linecap="round" stroke-width="4" d="M99.818 156.956c-30.774 17.481-39.96 4.741-42.46-1.382-.665-1.628-.858-2.788-.858-2.788s-6.246-32.388-14.61-47.328C34.835 92.855 25.426 84.474 10.763 84.03"/>
        <path fill="#4661AD" d="M45.868 64.989L42.119 68.996 62.997 79.57 61.539 71.872z"/>
    </g>
</svg>
