<svg xmlns="http://www.w3.org/2000/svg" width="87" height="80" viewBox="0 0 87 80">
    <g fill="#F05B30">
        <path d="M13.466 20.017h.092c3.455-.004 6.254-2.803 6.257-6.257v-2.083c-.003-3.454-2.802-6.253-6.257-6.258h-.092c-3.454.005-6.253 2.804-6.257 6.258v2.082c.003 3.455 2.803 6.254 6.257 6.258zm-3.602-8.34c.002-1.988 1.613-3.6 3.602-3.602h.092c1.989.002 3.6 1.614 3.603 3.602v2.083c-.002 1.989-1.614 3.6-3.603 3.603h-.092c-1.989-.003-3.6-1.614-3.602-3.603v-2.083zM20.875 22.014h-2.619c-.337 0-.662.13-.908.36l-3.645 3.421-3.5-3.406c-.247-.24-.58-.375-.925-.375h-2.78c-1.825 0-3.566.767-4.797 2.114-1.23 1.347-1.839 3.15-1.675 4.967v15.233c0 2.248 1.822 4.07 4.07 4.071h.049c.545-.006 1.083-.124 1.58-.348l.7 27.545c.06 1.695 1.11 3.196 2.682 3.833 1.572.636 3.37.29 4.594-.885 1.224 1.177 3.027 1.523 4.6.882 1.573-.64 2.62-2.147 2.676-3.844l.698-27.509c1.259.537 2.702.406 3.843-.348 1.142-.755 1.83-2.03 1.83-3.4V29.097c.163-1.817-.444-3.62-1.675-4.968-1.232-1.347-2.973-2.114-4.798-2.114zm-4.2 55.075c-.91-.001-1.647-.739-1.648-1.648V47.848h-2.655v27.593c0 .895-.716 1.626-1.611 1.646-.896.02-1.643-.678-1.684-1.573l-.79-31.131h10.827l-.791 31.116c-.029.888-.76 1.593-1.647 1.59zm8.024-48.19c-.005.044-.007.089-.007.133v15.294c-.009.777-.642 1.404-1.42 1.404-.778 0-1.412-.627-1.42-1.404v-3.242l.015-.617h-.016V34.09h-2.654v6.964l-.017.675H8.22l-.033-1.327h-.016V34.09H5.516V44.25c.018.797-.605 1.461-1.401 1.495-.379.004-.743-.144-1.013-.41-.268-.266-.42-.628-.42-1.007V29.033c0-.045-.003-.09-.007-.134-.11-1.081.244-2.158.973-2.964.728-.806 1.764-1.266 2.85-1.266H8.74l4.02 3.912.02.016c.04.038.08.072.125.105l.01.007c.048.035.098.066.15.093l.032.016c.048.024.098.045.148.063l.014.005c.054.018.109.033.165.044l.04.007c.05.009.1.014.15.017l.023.002c.056.002.112 0 .169-.005l.04-.005c.055-.006.11-.016.165-.03h.006c.058-.016.116-.035.172-.06.005 0 .01-.001.014-.004.005-.001.01-.005.014-.006.109-.048.21-.11.303-.185l.036-.03.04-.033 4.186-3.929h2.095c1.086 0 2.121.46 2.85 1.266.728.806 1.081 1.883.972 2.963zM72.175 20.017h.092c3.454-.004 6.253-2.803 6.258-6.257v-2.083c-.005-3.454-2.804-6.253-6.258-6.258h-.092c-3.455.005-6.253 2.804-6.257 6.258v2.082c.004 3.455 2.802 6.254 6.257 6.258zm-3.603-8.34c.003-1.988 1.614-3.6 3.603-3.602h.092c1.99.002 3.6 1.614 3.603 3.602v2.083c-.002 1.989-1.614 3.6-3.603 3.603h-.092c-1.989-.003-3.6-1.614-3.603-3.603v-2.083zM79.584 22.014h-2.62c-.337 0-.661.13-.907.36l-3.646 3.42-3.499-3.405c-.248-.24-.58-.375-.926-.375h-2.78c-1.825 0-3.566.767-4.797 2.114-1.231 1.347-1.839 3.15-1.675 4.967v15.233c0 2.248 1.823 4.07 4.07 4.071h.048c.545-.006 1.084-.125 1.58-.348l.7 27.545c.06 1.694 1.11 3.195 2.682 3.832 1.572.637 3.37.29 4.593-.884 1.226 1.177 3.028 1.522 4.6.881 1.574-.64 2.623-2.146 2.677-3.844l.698-27.508c1.259.537 2.702.405 3.843-.349 1.142-.754 1.83-2.03 1.83-3.398v-15.23c.164-1.817-.445-3.62-1.675-4.967-1.23-1.347-2.971-2.114-4.796-2.115zm-4.2 55.075c-.91-.001-1.648-.739-1.649-1.648V47.848h-2.654v27.593c.002.897-.714 1.63-1.611 1.65-.897.02-1.645-.68-1.684-1.577l-.79-31.131h10.826l-.79 31.116c-.03.888-.759 1.593-1.648 1.59zm8.023-48.19c-.004.044-.007.089-.007.133v15.294c0 .784-.635 1.42-1.42 1.42-.784 0-1.42-.636-1.42-1.42v-3.242l.016-.617h-.015V34.09h-2.655v6.963l-.017.675H66.93l-.034-1.327h-.017V34.09h-2.654V44.25c.018.797-.605 1.461-1.401 1.495-.379.004-.743-.144-1.012-.41-.27-.266-.422-.629-.422-1.007V29.033c0-.045-.002-.09-.006-.134-.11-1.081.243-2.158.972-2.964.728-.806 1.764-1.266 2.851-1.266h2.24l4.023 3.912c.005.006.013.01.019.015.04.039.082.073.126.106l.01.007c.048.035.098.066.15.093l.032.016c.048.024.099.045.15.063l.012.005c.054.018.11.033.166.044l.04.007c.049.008.1.014.15.017l.023.002c.056.002.112 0 .168-.006.014 0 .027-.002.04-.004.056-.006.111-.017.165-.03h.006c.06-.016.116-.035.173-.06.004 0 .01-.001.014-.004.004-.001.008-.005.013-.007.109-.047.211-.109.304-.184l.035-.03.04-.033 4.186-3.929h2.095c1.086 0 2.122.46 2.85 1.266.729.806 1.081 1.883.972 2.963h-.001zM42.82 20.017h.093c3.454-.004 6.253-2.803 6.257-6.257v-2.083c-.004-3.454-2.803-6.253-6.257-6.258h-.093c-3.453.005-6.252 2.804-6.257 6.258v2.082c.004 3.455 2.803 6.254 6.257 6.258zm-3.602-8.34c.002-1.988 1.614-3.6 3.602-3.602h.093c1.989.002 3.6 1.614 3.602 3.602v2.083c-.002 1.989-1.613 3.6-3.602 3.603h-.093c-1.988-.003-3.6-1.614-3.602-3.603v-2.083zM50.23 22.014h-2.62c-.338 0-.662.13-.908.36l-3.645 3.421-3.5-3.406c-.247-.24-.58-.375-.924-.375h-2.78c-1.826 0-3.566.767-4.797 2.114-1.232 1.347-1.84 3.15-1.676 4.967v15.233c.001 2.248 1.823 4.07 4.071 4.071h.047c.545-.006 1.084-.125 1.58-.348l.7 27.545c.06 1.695 1.111 3.196 2.683 3.832 1.571.637 3.37.29 4.593-.884 1.225 1.177 3.027 1.522 4.6.882 1.573-.64 2.622-2.147 2.677-3.845l.697-27.508c1.26.537 2.703.405 3.844-.349 1.142-.754 1.828-2.03 1.828-3.398v-15.23c.165-1.817-.443-3.62-1.674-4.968-1.23-1.346-2.971-2.113-4.795-2.114zm-4.2 55.075c-.91-.001-1.648-.739-1.648-1.648V47.848h-2.655v27.593c0 .895-.716 1.626-1.612 1.646-.895.02-1.642-.678-1.683-1.573l-.79-31.131h10.826l-.791 31.116c-.028.888-.759 1.593-1.647 1.59zm8.023-48.19c-.005.044-.007.089-.007.133v15.294c0 .784-.636 1.42-1.42 1.42-.784 0-1.42-.636-1.42-1.42v-3.242l.016-.617h-.016V34.09h-2.654v6.963l-.017.675h-10.96L37.54 40.4h-.015V34.09H34.87V44.25c.018.797-.606 1.461-1.401 1.495-.379.004-.744-.144-1.013-.41-.27-.266-.42-.629-.421-1.007V29.033c0-.045-.002-.09-.007-.134-.11-1.081.245-2.158.973-2.964.728-.807 1.765-1.267 2.851-1.266h2.241l4.022 3.912c.006.006.013.01.02.015.039.038.08.073.125.106l.01.007c.048.035.099.066.15.092l.032.017c.048.024.098.045.148.063l.014.005c.054.018.11.033.166.044l.039.007c.05.009.1.014.15.017l.023.002c.056.002.113 0 .169-.006.013 0 .027-.002.04-.004.056-.006.111-.017.165-.03h.006c.059-.016.116-.035.173-.06.004 0 .009-.001.013-.004l.014-.007c.109-.047.211-.109.304-.184l.035-.03.039-.033 4.187-3.929h2.094c1.087 0 2.122.46 2.851 1.266.728.806 1.082 1.883.971 2.963zM34.666 8.34V6.257C34.663 2.803 31.864.004 28.41 0h-.092c-3.454.004-6.253 2.803-6.257 6.257V8.34c.004 3.454 2.803 6.252 6.257 6.257h.092c3.455-.004 6.254-2.803 6.257-6.257zm-2.654 0c-.002 1.989-1.613 3.6-3.603 3.602h-.092c-1.988-.002-3.6-1.613-3.602-3.602V6.257c.002-1.989 1.614-3.6 3.602-3.602h.092c1.99.002 3.6 1.613 3.603 3.602V8.34zM64.021 8.34V6.257C64.017 2.803 61.218.004 57.764 0h-.093c-3.453.004-6.252 2.803-6.257 6.257V8.34c.005 3.454 2.804 6.252 6.257 6.257h.093c3.454-.004 6.253-2.803 6.257-6.257zm-2.655 0c-.002 1.989-1.613 3.6-3.602 3.602h-.093c-1.988-.002-3.6-1.613-3.602-3.602V6.257c.002-1.989 1.614-3.6 3.602-3.602h.093c1.989.002 3.6 1.613 3.602 3.602V8.34z" transform="translate(0 .015)"/>
    </g>
</svg>
