<svg xmlns="http://www.w3.org/2000/svg" width="82" height="80" viewBox="0 0 82 80">
    <g fill="#F05B30">
        <path d="M79.195 37.318c-1.214-1.12-2.866-1.811-4.532-1.898-1.892-.098-3.664.577-4.984 1.897l-9.019 8.924c-.178-.308-.382-.6-.61-.87-1.11-1.318-2.732-2.043-4.568-2.043H42.856c-2.38 0-4.703-.309-6.902-.917-5.734-1.586-11.212-.428-15.843 3.352-1.883 1.537-3.256 3.21-4.125 4.428l-2.264-2.196c-.298-.29-.701-.453-1.116-.453h-.01c-.43.003-.847.181-1.145.49L.446 59.458c-.294.306-.455.717-.446 1.141.01.425.188.829.495 1.122l18.613 17.722c.308.294.705.44 1.1.44.415 0 .83-.16 1.143-.481l10.902-11.185c.298-.306.463-.723.455-1.15-.008-.421-.185-.827-.487-1.12l-.949-.921 2.173-.245c1.314-.153 2.65-.23 3.974-.23h19.209c3.121 0 5.772-.683 7.88-2.03l.052-.034c.755-.525 1.44-1.146 2.035-1.848L79.54 45.41c2.215-2.606 2.077-5.858-.345-8.092zM20.167 76.044L3.857 60.515l8.786-9.12 16.214 15.733-8.69 8.916zm56.942-32.701l-12.945 15.23c-.41.482-.882.912-1.401 1.276-1.582 1.002-3.646 1.51-6.135 1.51h-19.21c-1.445 0-2.906.085-4.336.252l-4.776.536-10-9.705c.695-1.03 1.973-2.696 3.823-4.207 3.848-3.14 8.214-4.066 12.974-2.749 2.477.685 5.085 1.033 7.753 1.033h12.626c2.267 0 2.872 1.964 2.872 3.125 0 .847-.272 1.654-.746 2.214-.515.606-1.247.913-2.176.913h-10.99c-.882 0-1.596.714-1.596 1.596 0 .88.714 1.595 1.595 1.595h10.99c1.856 0 3.492-.724 4.609-2.038.928-1.093 1.458-2.53 1.503-4.066L71.93 39.58c1.484-1.485 3.804-1.112 5.101.084.671.62 1.573 1.92.078 3.679zM10.785 33.664h15.548c.846 0 1.63-.274 2.267-.739.637.465 1.42.74 2.267.74h15.548c.847 0 1.63-.275 2.268-.74.637.465 1.42.74 2.267.74h15.548c2.13 0 3.862-1.734 3.862-3.864v-7.25c0-3.257-1.822-6.085-4.55-7.48 1.322-1.595 2.118-3.64 2.118-5.867 0-5.075-4.13-9.204-9.204-9.204-5.075 0-9.204 4.129-9.204 9.204 0 2.228.796 4.273 2.118 5.866-1.18.604-2.189 1.476-2.955 2.534-.767-1.058-1.776-1.93-2.956-2.534 1.322-1.593 2.118-3.638 2.118-5.866C47.845 4.129 43.716 0 38.64 0c-5.075 0-9.204 4.129-9.204 9.204 0 2.228.797 4.273 2.118 5.867-1.179.603-2.188 1.475-2.955 2.533-.767-1.058-1.776-1.93-2.956-2.534 1.322-1.593 2.118-3.638 2.118-5.866C27.762 4.13 23.633 0 18.558 0c-5.074 0-9.203 4.129-9.203 9.204 0 2.228.796 4.273 2.118 5.867-2.728 1.395-4.551 4.225-4.551 7.48v7.25c0 2.13 1.733 3.863 3.863 3.863zm47.94-30.473c3.315 0 6.012 2.697 6.012 6.013 0 3.315-2.697 6.012-6.012 6.012-3.316 0-6.013-2.696-6.013-6.012 0-3.316 2.697-6.013 6.013-6.013zm-4.146 14.227c1.247.631 2.655.99 4.145.99 1.49 0 2.898-.359 4.145-.99 2.48.432 4.3 2.568 4.3 5.133v7.25c0 .37-.3.672-.671.672H50.95c-.37 0-.671-.301-.671-.672v-7.25c0-2.564 1.82-4.701 4.3-5.133zM38.642 3.19c3.315 0 6.012 2.697 6.012 6.013 0 3.315-2.697 6.012-6.012 6.012-3.316 0-6.013-2.696-6.013-6.012 0-3.316 2.697-6.013 6.013-6.013zm-4.145 14.227c1.246.631 2.654.99 4.145.99 1.49 0 2.898-.359 4.145-.99 2.479.432 4.3 2.568 4.3 5.133v7.25c0 .37-.3.672-.672.672H30.868c-.37 0-.672-.301-.672-.672v-7.25c0-2.564 1.822-4.701 4.3-5.133zM18.559 3.19c3.315 0 6.012 2.697 6.012 6.013 0 3.315-2.697 6.012-6.012 6.012-3.315 0-6.013-2.697-6.013-6.012 0-3.316 2.698-6.013 6.013-6.013zm-8.446 19.36c0-2.564 1.822-4.701 4.3-5.133 1.248.631 2.655.99 4.146.99 1.49 0 2.898-.359 4.145-.99 2.48.432 4.3 2.568 4.3 5.133v7.25c0 .37-.3.672-.671.672H10.785c-.37 0-.672-.301-.672-.672v-7.25z"/>
    </g>
</svg>
