<svg xmlns="http://www.w3.org/2000/svg" width="535" height="487" viewBox="0 0 535 487">
    <g fill="none" fill-rule="evenodd">
        <g>
            <g>
                <path fill="#FBAE3E" d="M0 45.769L56.667 45.769 56.667 0 0 0z" transform="translate(.76) translate(0 30.062) translate(105.366 .183)"/>
                <path fill="#FFC950" d="M3.064 45.769L59.731 45.769 59.731 0 3.064 0z" transform="translate(.76) translate(0 30.062) translate(105.366 .183)"/>
                <path fill="#FFFFFE" d="M11.743 37.543L51.052 37.543 51.052 8.227 11.743 8.227z" transform="translate(.76) translate(0 30.062) translate(105.366 .183)"/>
            </g>
            <path fill="#F7D1CA" d="M231.16 456.456c-103.097 0-186.673-6.675-186.673-14.912 0-8.234 83.576-14.91 186.673-14.91 103.095 0 186.67 6.676 186.67 14.91 0 8.237-83.575 14.912-186.67 14.912" transform="translate(.76) translate(0 30.062)"/>
            <g>
                <g fill="#3B78B3">
                    <path d="M4.84 57.05c10.299 18.536 33.673 25.213 52.209 14.914 18.536-10.3 25.213-33.675 14.914-52.21C61.663 1.218 38.289-5.46 19.753 4.84 1.219 15.14-5.458 38.514 4.84 57.05" transform="translate(.76) translate(0 30.062) translate(292.887 76.443) scale(-1 1) rotate(-20 24.79 309.273)"/>
                    <path d="M45.157 69.12S38.905 81.24 48 90.735C28.623 84.731 27.685 70.67 27.685 70.67" transform="translate(.76) translate(0 30.062) translate(292.887 76.443) scale(-1 1) rotate(-20 24.79 309.273)"/>
                </g>
                <path fill="#FFFFFE" d="M34.405 42.808h44.067c1.043 0 1.889-.845 1.889-1.888v-.15c0-1.042-.846-1.888-1.889-1.888H34.405c-1.044 0-1.889.846-1.889 1.889v.149c0 1.043.845 1.888 1.889 1.888M34.405 52.868h44.067c1.043 0 1.889-.846 1.889-1.889v-.148c0-1.043-.846-1.888-1.889-1.888H34.405c-1.044 0-1.889.845-1.889 1.888v.148c0 1.043.845 1.889 1.889 1.889M34.405 62.928h34.22c1.041 0 1.888-.846 1.888-1.889v-.148c0-1.044-.847-1.889-1.889-1.889h-34.22c-1.043 0-1.888.845-1.888 1.889v.148c0 1.043.845 1.89 1.889 1.89" transform="translate(.76) translate(0 30.062) translate(292.887 76.443)"/>
            </g>
            <path fill="#3B78B3" d="M14.336 163.282L47.081 163.282 47.081 152.688 14.336 152.688zM.049 148.897L32.794 148.897 32.794 138.303.049 138.303zM.049 177.669L32.794 177.669 32.794 167.075.049 167.075z" transform="translate(.76) translate(0 30.062)"/>
            <g>
                <path fill="#14171A" d="M149.64 162.327c-1.495 1.283-21.266 11.964-33.23 27.347l23.89 22.006 39.539-9.482 2.33-39.871h-32.53" transform="translate(.76) translate(0 30.062) translate(40.26 124.617)"/>
                <path fill="#F8A17A" d="M143.353 305.872L139.131 283.515 153.548 283.515 155.282 305.872 143.353 305.872" transform="translate(.76) translate(0 30.062) translate(40.26 124.617)"/>
                <path fill="#14497D" d="M155.282 303.748h-11.929s-8.307 5.232-10.46 14.464h33.541s-5.51-11.9-11.152-14.464" transform="translate(.76) translate(0 30.062) translate(40.26 124.617)"/>
                <path fill="#3B78B3" d="M132.893 322.357L166.434 322.357 166.434 318.212 132.893 318.212z" transform="translate(.76) translate(0 30.062) translate(40.26 124.617)"/>
                <path stroke="#FFFFFE" stroke-linecap="round" stroke-linejoin="round" stroke-width=".958" d="M142.905 309.401s7.062-3.718 12.377 0" transform="translate(.76) translate(0 30.062) translate(40.26 124.617)"/>
                <path fill="#14171A" d="M147.86 197.621c4.707 33.011 12.821 95.004 12.821 95.004l-27.929.518-19.294-89.274c-2.132-9.67 4.18-19.18 13.922-20.971 9.773-1.797 19.077 4.883 20.48 14.723M209.72 162.327c1.497 1.283 21.265 11.964 33.23 27.347l-23.89 22.006-39.54-9.482-2.33-39.871h32.53" transform="translate(.76) translate(0 30.062) translate(40.26 124.617)"/>
                <path fill="#F8A17A" d="M214.37 305.872L218.593 283.515 204.176 283.515 202.44 305.872 214.37 305.872" transform="translate(.76) translate(0 30.062) translate(40.26 124.617)"/>
                <path fill="#14497D" d="M202.44 303.748h11.93s8.308 5.232 10.463 14.464H191.29s5.51-11.9 11.15-14.464" transform="translate(.76) translate(0 30.062) translate(40.26 124.617)"/>
                <path fill="#3B78B3" d="M191.289 322.357L224.833 322.357 224.833 318.212 191.289 318.212z" transform="translate(.76) translate(0 30.062) translate(40.26 124.617)"/>
                <path stroke="#FFFFFE" stroke-linecap="round" stroke-linejoin="round" stroke-width=".958" d="M214.821 309.401s-7.064-3.718-12.381 0" transform="translate(.76) translate(0 30.062) translate(40.26 124.617)"/>
                <path fill="#14171A" d="M211.5 197.621c-4.707 33.011-14.83 95.004-14.83 95.004l27.93.518 21.301-89.274c2.133-9.67-4.18-19.18-13.922-20.971-9.773-1.797-19.074 4.883-20.479 14.723" transform="translate(.76) translate(0 30.062) translate(40.26 124.617)"/>
                <path fill="#129F89" d="M176.075 70.904s-25.255 0-43.849 18.286v51.242s88.98 1.355 88.98 0l.02-54.63s-18.199-14.898-45.15-14.898" transform="translate(.76) translate(0 30.062) translate(40.26 124.617)"/>
                <path fill="#F8A17A" d="M138.502 137.572h-25.369c-6.661 0-12.06 5.4-12.06 12.06 0 6.662 5.399 12.061 12.06 12.061h29.843l-4.474-24.12" transform="translate(.76) translate(0 30.062) translate(40.26 124.617)"/>
                <path fill="#F8A17A" d="M102.563 143.816L119.606 116.135 142.976 119.289 139.51 149.633 102.563 143.816" transform="translate(.76) translate(0 30.062) translate(40.26 124.617)"/>
                <path stroke="#EC956E" stroke-width=".718" d="M132.226 137.572L117.15 137.572" transform="translate(.76) translate(0 30.062) translate(40.26 124.617)"/>
                <path fill="#129F89" d="M135.988 85.801s-13.728 11.086-28.2 35.488c0 0 3.122 14.122 30.08 16.283l-1.88-51.77" transform="translate(.76) translate(0 30.062) translate(40.26 124.617)"/>
                <path fill="#F8A17A" d="M217.91 137.572h25.37c6.662 0 12.06 5.4 12.06 12.06 0 6.662-5.398 12.061-12.06 12.061h-29.843l4.473-24.12" transform="translate(.76) translate(0 30.062) translate(40.26 124.617)"/>
                <path fill="#F8A17A" d="M253.783 143.697L232.455 111.057 213.437 119.289 216.903 149.633 253.783 143.697" transform="translate(.76) translate(0 30.062) translate(40.26 124.617)"/>
                <path stroke="#EC956E" stroke-width=".718" d="M219.35 137.572L239.263 137.572" transform="translate(.76) translate(0 30.062) translate(40.26 124.617)"/>
                <path fill="#129F89" d="M221.227 85.801s13.73 11.086 28.201 35.488c0 0-3.122 14.122-30.078 16.283l1.877-51.77" transform="translate(.76) translate(0 30.062) translate(40.26 124.617)"/>
                <path fill="#E0E0E0" d="M217.167 161.693h-80.903c-2.23 0-4.038-1.81-4.038-4.038V106.58c0-2.23 1.807-4.036 4.038-4.036h80.903c2.23 0 4.039 1.805 4.039 4.036v51.075c0 2.229-1.81 4.038-4.039 4.038" transform="translate(.76) translate(0 30.062) translate(40.26 124.617)"/>
                <path fill="#FFFFFE" d="M182.169 132.117c0 3.013-2.443 5.455-5.452 5.455-3.013 0-5.456-2.442-5.456-5.455 0-3.01 2.443-5.452 5.456-5.452 3.009 0 5.452 2.443 5.452 5.452" transform="translate(.76) translate(0 30.062) translate(40.26 124.617)"/>
                <path fill="#F8A17A" d="M179.648 79.664h-5.898c-3.77 0-6.827-3.055-6.827-6.827V60.112h19.552v12.725c0 3.772-3.055 6.827-6.827 6.827" transform="translate(.76) translate(0 30.062) translate(40.26 124.617)"/>
                <path fill="#EC956E" d="M166.978 60.944s2.839 8.763 19.497 8.459V57.307s-1.111 2.25-8.534 1.933c-7.493-.321-10.963 1.704-10.963 1.704" transform="translate(.76) translate(0 30.062) translate(40.26 124.617)"/>
                <path fill="#14171A" d="M200.813 27.306c0 13.753-10.87 24.9-24.274 24.9-13.407 0-24.272-11.147-24.272-24.9 0-13.752 10.865-24.899 24.272-24.899 13.404 0 24.274 11.147 24.274 24.9" transform="translate(.76) translate(0 30.062) translate(40.26 124.617)"/>
                <path fill="#F8A17A" d="M197.52 36.39s1.748-2.779 5.352-1.412 1.975 10.121-3.433 11.239c0 0-1.94.421-3.46-.906 0 0 1.332-6.466 1.542-8.922" transform="translate(.76) translate(0 30.062) translate(40.26 124.617)"/>
                <path stroke="#EC956E" stroke-linecap="round" stroke-linejoin="round" stroke-width=".461" d="M202.159 38.067s-3.021-1.009-5.164 3.439" transform="translate(.76) translate(0 30.062) translate(40.26 124.617)"/>
                <path fill="#F8A17A" d="M156.127 36.39s-1.749-2.779-5.353-1.412c-3.607 1.367-1.975 10.121 3.432 11.239 0 0 1.938.421 3.458-.906 0 0-1.33-6.466-1.537-8.922" transform="translate(.76) translate(0 30.062) translate(40.26 124.617)"/>
                <path stroke="#EC956E" stroke-linecap="round" stroke-linejoin="round" stroke-width=".461" d="M151.489 38.067s3.017-1.009 5.162 3.439" transform="translate(.76) translate(0 30.062) translate(40.26 124.617)"/>
                <path fill="#F8A17A" d="M197.86 28.845c.003 5.611-.578 17.349-4.216 24.316-3.413 6.54-9.06 10.06-16.464 10.272-7.405.208-12.922-2.499-17.34-10.989-4.42-8.49-4.21-23.494-4.21-23.494s0-20.04 20.886-20.04c21.997 0 21.345 19.935 21.345 19.935" transform="translate(.76) translate(0 30.062) translate(40.26 124.617)"/>
                <path fill="#14171A" d="M156.127 36.39s7.932-18.142 1.537-21.109c0 0-4.575 15.615-1.537 21.108M197.456 36.39s-4.458-9.78-.524-16.82c0 0 3.56 11.326.524 16.82" transform="translate(.76) translate(0 30.062) translate(40.26 124.617)"/>
                <path fill="#14171A" d="M157.664 15.281s13.046 15.806 40.654 10.555c0 0 2.432-14.287-11.843-18.652-14.27-4.366-25.406 5.952-28.811 8.097" transform="translate(.76) translate(0 30.062) translate(40.26 124.617)"/>
                <path fill="#14171A" d="M157.664 15.281S157.395 2.31 169.404.365c12.008-1.944 12.391 4.48 20.892 4.993 12.689.76 18.478 13.24 8.022 20.478l-17.65-10.555h-23.004" transform="translate(.76) translate(0 30.062) translate(40.26 124.617)"/>
                <path fill="#14171A" d="M158.117 11.514s-13.08 1.606-4.997 22.36l4.997-22.36" transform="translate(.76) translate(0 30.062) translate(40.26 124.617)"/>
                <path fill="#1EC6A6" d="M166.923 68.839L176.539 79.664 169.403 86.965 160.26 73.093 166.923 68.839M186.475 69.403L176.539 79.664 183.676 86.965 193.885 73.078 186.475 69.403" transform="translate(.76) translate(0 30.062) translate(40.26 124.617)"/>
                <path fill="#9D786A" d="M0 177.094L350.8 177.094 350.8 161.693 0 161.693z" transform="translate(.76) translate(0 30.062) translate(40.26 124.617)"/>
                <g>
                    <path fill="#9D786A" d="M0 145.783L9.666 145.783 9.666 0 0 0z" transform="translate(.76) translate(0 30.062) translate(40.26 124.617) translate(50.63 177.094)"/>
                    <path fill="#94624F" d="M0 4.862L9.666 4.862 9.666 0 0 0z" transform="translate(.76) translate(0 30.062) translate(40.26 124.617) translate(50.63 177.094)"/>
                </g>
                <g>
                    <path fill="#9D786A" d="M0 145.783L9.666 145.783 9.666 0 0 0z" transform="translate(.76) translate(0 30.062) translate(40.26 124.617) translate(297.873 177.094)"/>
                    <path fill="#94624F" d="M0 4.862L9.666 4.862 9.666 0 0 0z" transform="translate(.76) translate(0 30.062) translate(40.26 124.617) translate(297.873 177.094)"/>
                </g>
                <g>
                    <path fill="#FFC950" d="M33.068 85.906L14.044 85.906 10.593 55.368 36.519 55.368 33.068 85.906" transform="translate(.76) translate(0 30.062) translate(40.26 124.617) matrix(-1 0 0 1 322.009 76.361)"/>
                    <path fill="#FFD695" d="M40.215 80.023h-8.527v-1.598h8.527c4.262 0 7.728-3.467 7.728-7.728 0-4.261-3.466-7.728-7.728-7.728h-8.527v-1.598h8.527c5.142 0 9.327 4.184 9.327 9.326s-4.185 9.326-9.327 9.326" transform="translate(.76) translate(0 30.062) translate(40.26 124.617) matrix(-1 0 0 1 322.009 76.361)"/>
                    <path fill="#FFD695" d="M23.556 55.368L23.556 85.906 33.068 85.906 36.519 55.368 23.556 55.368" transform="translate(.76) translate(0 30.062) translate(40.26 124.617) matrix(-1 0 0 1 322.009 76.361)"/>
                    <path fill="#D2D2D2" fill-opacity=".179" d="M60.596 0h-21.52c-4.313 0-7.809 3.496-7.809 7.81 0 1.725-1.399 3.123-3.125 3.123H8.2c-4.53 0-8.2 3.671-8.2 8.2 0 4.528 3.67 8.199 8.2 8.199h7.448c1.725 0 3.124 1.398 3.124 3.123v1.042c0 1.725-1.399 3.124-3.124 3.124h-4.035c-3.234 0-5.857 2.623-5.857 5.856 0 3.236 2.623 5.858 5.857 5.858h4.035c1.725 0 3.124 1.398 3.124 3.124v4.133h9.891v-7.778c0-1.725 1.4-3.123 3.124-3.123h14.578c3.306 0 5.987-2.681 5.987-5.987 0-3.307-2.681-5.987-5.987-5.987h-6.826c-1.725 0-3.124-1.399-3.124-3.124 0-1.726 1.399-3.125 3.124-3.125h21.057c6.757 0 12.235-5.476 12.235-12.233C72.83 5.478 67.353 0 60.596 0" transform="translate(.76) translate(0 30.062) translate(40.26 124.617) matrix(-1 0 0 1 322.009 76.361)"/>
                </g>
            </g>
        </g>
        <g>
            <path fill="#F9CE5C" d="M239.635 66.661L471.463 66.661 471.463 0 239.635 0z" transform="translate(.76) translate(62.7)"/>
            <path fill="#F6F6F6" d="M247.827 58.509L463.27 58.509 463.27 8.153 247.827 8.153z" transform="translate(.76) translate(62.7)"/>
            <path fill="#DDD" d="M247.827 13.321L463.27 13.321 463.27 8.153 247.827 8.153z" transform="translate(.76) translate(62.7)"/>
            <path fill="#3B78B3" d="M247.827 58.509L259.781 58.509 259.781 18.334 247.827 18.334z" transform="translate(.76) translate(62.7)"/>
            <path fill="#1F609C" d="M247.827 26.814L259.781 26.814 259.781 23.903 247.827 23.903zM247.827 33.33L259.781 33.33 259.781 30.419 247.827 30.419z" transform="translate(.76) translate(62.7)"/>
            <path fill="#FBAE3E" d="M320.509 54.499L309.256 58.509 295.639 20.687 306.894 16.677 320.509 54.499" transform="translate(.76) translate(62.7)"/>
            <path fill="#E1972A" d="M309.767 24.66L298.515 28.669 297.528 25.929 308.78 21.92 309.767 24.66M311.975 30.794L300.722 34.805 299.736 32.064 310.989 28.055 311.975 30.794" transform="translate(.76) translate(62.7)"/>
            <path fill="#FBAE3E" d="M259.781 58.509L271.734 58.509 271.734 18.334 259.781 18.334z" transform="translate(.76) translate(62.7)"/>
            <path fill="#E1972A" d="M259.68 26.814L271.634 26.814 271.634 23.903 259.68 23.903zM259.68 33.33L271.634 33.33 271.634 30.419 259.68 30.419z" transform="translate(.76) translate(62.7)"/>
            <path fill="#18AC90" d="M271.734 58.509L283.687 58.509 283.687 18.334 271.734 18.334z" transform="translate(.76) translate(62.7)"/>
            <path fill="#139A81" d="M271.737 26.814L283.69 26.814 283.69 23.903 271.737 23.903zM271.737 33.33L283.69 33.33 283.69 30.419 271.737 30.419z" transform="translate(.76) translate(62.7)"/>
            <path fill="#3B78B3" d="M283.687 58.509L295.639 58.509 295.639 18.334 283.687 18.334z" transform="translate(.76) translate(62.7)"/>
            <path fill="#1F609C" d="M283.679 26.814L295.632 26.814 295.632 23.903 283.679 23.903zM283.679 33.33L295.632 33.33 295.632 30.419 283.679 30.419z" transform="translate(.76) translate(62.7)"/>
            <path fill="#0E8D75" d="M355.549 30.288s0-6.092 10.6-5.115c0 0-5.3 8.047-10.6 5.115M355.549 33.22s0-6.092-10.601-5.115c0 0 5.3 8.047 10.601 5.116" transform="translate(.76) translate(62.7)"/>
            <path fill="#48222B" d="M356.215 24.942v10.297h-1.332V24.942c0-.366.299-.662.666-.662.367 0 .666.296.666.662" transform="translate(.76) translate(62.7)"/>
            <path fill="#3B78B3" d="M365.131 39.443L362.113 58.509 348.984 58.509 345.967 39.443 365.131 39.443" transform="translate(.76) translate(62.7)"/>
            <path fill="#14497D" d="M342.413 39.443L368.685 39.443 368.685 35.239 342.413 35.239z" transform="translate(.76) translate(62.7)"/>
            <path fill="#3B78B3" d="M365.131 39.443L364.467 43.646 346.631 43.646 345.967 39.443 365.131 39.443" transform="translate(.76) translate(62.7)"/>
            <path fill="#0E8D75" d="M355.467 25.343s-5.218-2.04.082-12.023c0 0 5.3 9.234-.082 12.023" transform="translate(.76) translate(62.7)"/>
            <path fill="#FFFFFE" d="M419.735 56.874H384.54v-8.148h35.195c1.528 0 2.928.846 3.633 2.194.616 1.178.616 2.581 0 3.76-.705 1.348-2.105 2.194-3.633 2.194" transform="translate(.76) translate(62.7)"/>
            <path fill="#D23545" d="M425.162 52.8c0-3.079-2.47-5.594-5.544-5.686l-.084-.005H384.54c-.446 0-.812.365-.812.809 0 .444.366.808.812.808h34.902c2.258 0 4.097 1.827 4.097 4.074 0 2.246-1.838 4.074-4.096 4.074H384.54c-.446 0-.812.364-.812.808 0 .445.366.808.812.808h34.994l.084-.004c3.073-.093 5.544-2.608 5.544-5.686" transform="translate(.76) translate(62.7)"/>
            <path fill="#C0C0BB" d="M384.54 51.188h34.755c.15 0 .273-.122.273-.271 0-.15-.123-.272-.273-.272H384.54v.543M384.54 53.07h34.755c.15 0 .273-.12.273-.27 0-.15-.123-.272-.273-.272H384.54v.543M384.54 54.955h34.755c.15 0 .273-.122.273-.272 0-.15-.123-.272-.273-.272H384.54v.544" transform="translate(.76) translate(62.7)"/>
            <path fill="#FFFFFE" d="M423.568 41.42c0 .644-.152 1.29-.46 1.88-.35.673-.878 1.22-1.507 1.602-.63.381-1.362.591-2.126.591h-35.192v-8.148h35.192c1.135 0 2.202.467 2.962 1.264.264.271.493.583.672.93.307.59.46 1.235.46 1.88" transform="translate(.76) translate(62.7)"/>
            <path fill="#C0C0BB" d="M384.28 39.808h34.754c.152 0 .274-.122.274-.272 0-.15-.122-.272-.274-.272h-34.753v.544M384.28 41.69h34.754c.152 0 .274-.121.274-.27 0-.151-.122-.273-.274-.273h-34.753v.543M384.28 43.573h34.754c.152 0 .274-.122.274-.27 0-.151-.122-.273-.274-.273h-34.753v.543" transform="translate(.76) translate(62.7)"/>
            <path fill="#0577B0" d="M424.903 41.42c0-3.08-2.472-5.594-5.546-5.688l-.084-.004h-34.991c-.449 0-.814.364-.814.808 0 .444.365.809.814.809h34.902c2.258 0 4.094 1.827 4.094 4.074s-1.836 4.074-4.094 4.074h-34.902c-.449 0-.814.364-.814.808 0 .444.365.808.814.808h34.991l.084-.004c3.074-.093 5.546-2.607 5.546-5.686" transform="translate(.76) translate(62.7)"/>
            <path fill="#0E8D75" d="M425.814 58.393L432.502 58.393 432.502 13.32 425.814 13.32z" transform="translate(.76) translate(62.7)"/>
            <path fill="#217064" d="M425.814 22.503L432.502 22.503 432.502 18.938 425.814 18.938zM425.814 53.565L432.502 53.565 432.502 50.004 425.814 50.004z" transform="translate(.76) translate(62.7)"/>
            <path fill="#0577B0" d="M432.502 58.393L440.746 58.393 440.746 22.403 432.502 22.403z" transform="translate(.76) translate(62.7)"/>
            <path fill="#1F609C" d="M432.502 31.19L440.746 31.19 440.746 27.303 432.502 27.303z" transform="translate(.76) translate(62.7)"/>
            <path fill="#E3AD3D" d="M448.277 22.177L462.983 55.058 455.453 58.392 440.746 25.512 448.277 22.177" transform="translate(.76) translate(62.7)"/>
            <path fill="#DD9238" d="M450.278 26.653L451.866 30.205 444.336 33.539 442.747 29.988 450.278 26.653" transform="translate(.76) translate(62.7)"/>
            <g>
                <path fill="#9D786A" d="M45.82 3.917c.675.995.426 2.353-.574 3.028l-1.929 1.321c-.99.68-2.344.426-3.019-.566l-2.036-2.969c-.675-.996-.426-2.353.574-3.028l1.92-1.326c1-.674 2.353-.42 3.028.575l2.036 2.965" transform="translate(.76) translate(62.7) translate(0 207.855)"/>
                <path fill="#FFC950" d="M73.394 10.765C66.419 1.097 52.972-1.298 43.078 5.469c-9.89 6.771-12.529 20.173-6.052 30.176l36.368-24.88" transform="translate(.76) translate(62.7) translate(0 207.855)"/>
                <path fill="#FFFFFE" d="M39.918 33.672s-.004 0-.004-.005l9.97-6.816-9.966 6.82" transform="translate(.76) translate(62.7) translate(0 207.855)"/>
                <path fill="#FBAE3E" d="M39.914 33.667c-4.966-8.907-4.49-16.588-3.21-21.468.689-1.14 1.485-2.217 2.39-3.231.987 7.291 6.871 14.085 10.79 17.883l-9.97 6.816" transform="translate(.76) translate(62.7) translate(0 207.855)"/>
                <path fill="#A883AE" d="M60.458 19.613L70.389 12.824 60.458 19.613" transform="translate(.76) translate(62.7) translate(0 207.855)"/>
                <path fill="#FBAE3E" d="M60.417 19.645c-2.122-5.033-6.314-12.977-12.759-16.534 1.272-.484 2.57-.833 3.879-1.06 5.015.576 12.347 2.916 18.852 10.773l-9.93 6.79-.042.031" transform="translate(.76) translate(62.7) translate(0 207.855)"/>
                <path fill="#9D786A" d="M33.379 107.946L0.749 48.69 40.499 2.55 42.218 5.044 4.188 49.183 35.477 106.005 33.379 107.946" transform="translate(.76) translate(62.7) translate(0 207.855)"/>
                <path fill="#94624F" d="M8.79 48.585c0 2.427-1.965 4.39-4.39 4.39-2.431 0-4.4-1.963-4.4-4.39 0-2.43 1.969-4.39 4.4-4.39 2.425 0 4.39 1.96 4.39 4.39" transform="translate(.76) translate(62.7) translate(0 207.855)"/>
                <path fill="#513733" d="M15.988 108.648L45.495 108.648 45.495 104.045 15.988 104.045z" transform="translate(.76) translate(62.7) translate(0 207.855)"/>
            </g>
        </g>
    </g>
</svg>
