<svg xmlns="http://www.w3.org/2000/svg" xmlns:xlink="http://www.w3.org/1999/xlink" width="701" height="701" viewBox="0 0 701 701">
    <defs>
        <path id="wzarndzo5a" d="M0.399 0.711L937.683 0.711 937.683 700.836 0.399 700.836z"/>
    </defs>
    <g fill="none" fill-rule="evenodd" transform="translate(-237.17)">
        <mask id="etipa861yb" fill="#fff">
            <use xlink:href="#wzarndzo5a"/>
        </mask>
        <path fill="#FFDFD9" d="M1320.398 462.97c1.9-34.693 3.77-69.387 5.64-104.08 3.41-63.225 6.819-126.47 7.641-189.78.316-24.308.275-48.765-3.251-72.872-3.227-22.055-6.443-44.18-24.814-58.994-36.36-29.32-85.87-43.746-131.54-49.699-43.437-5.66-87.348-3.037-131.006-3.988-77.887-1.698-174.067-6.085-235.099 49.98-24.984 22.952-35.538 55.994-60.953 78.075-22.4 19.46-50.067 24.707-77.037 34.859-27.74 10.44-54.9 24.583-74.592 47.267-17.177 19.785-27.162 44.292-36.007 68.622-8.538 23.484-14.352 51.179-33.152 68.878-15.343 14.445-36.388 19.416-55.314 27.323-20.672 8.637-41.23 23.303-54.74 41.329-22.952 30.624-13.838 72.95-35.053 104.372-19.424 28.769-53.658 42.489-81.999 60.438-24.229 15.345-49.022 37.036-57.67 65.877-10.83 36.12 4.434 63.427 41.65 69.614 40.4 6.716 81.39 1.245 122.052 3.029 35.928 1.576 71.667 2.555 107.855 4.33 84.538 4.15 169.406 2.475 253.672 11.422 2.528.268 5.055.546 7.58.833 49.816 5.672 97.895 11.682 146.583 23.666 53.791 13.24 107.255 27.76 160.704 42.306 35.722 9.723 72.06 19.835 109.06 18.49 37.002-1.343 75.505-16.094 96.21-46.751 17.428-25.806 19.931-58.528 21.827-89.598 4.168-68.302 8.014-136.623 11.753-204.949" mask="url(#etipa861yb)"/>
        <path stroke="#FFBBB3" stroke-width="3" d="M806.186 70.225c-18.85 21.297-47.27 31.306-74.961 37.872-27.691 6.568-56.441 10.711-81.762 23.692-43.205 22.149-70.873 68.506-77.81 116.512-2.759 19.084-3.054 39.81-14.624 55.245-11.722 15.638-32.2 21.806-51.56 24.587-19.36 2.78-39.515 3.257-57.317 11.348-36.608 16.639-52.63 60.75-53.532 100.91-.599 26.641 1.868 57.975-18.776 74.855-16.38 13.394-40.01 11.044-60.756 15.247-23.414 4.745-44.084 19.645-57.465 39.218-15.147 22.156-14.599 40.91-13.738 66.101"/>
    </g>
</svg>
