<svg xmlns="http://www.w3.org/2000/svg" width="80" height="81" viewBox="0 0 80 81">
    <g fill="#F05B30">
        <path d="M36.316 35.305c-5.486 1.61-9.257 6.639-9.265 12.356v11.592c0 .712.576 1.289 1.288 1.289h23.186c.712 0 1.288-.577 1.288-1.289V47.661c-.009-5.717-3.78-10.746-9.265-12.356 3.91-1.712 6.084-5.93 5.21-10.107-.874-4.178-4.558-7.17-8.826-7.17-4.268 0-7.951 2.992-8.826 7.17-.874 4.178 1.3 8.395 5.21 10.107zm13.921 12.356v10.304h-20.61V47.661c0-5.692 4.613-10.306 10.305-10.306 5.69 0 10.305 4.614 10.305 10.306zM39.932 20.61c3.557 0 6.44 2.884 6.44 6.44 0 3.558-2.883 6.441-6.44 6.441-3.558 0-6.44-2.883-6.44-6.44.004-3.556 2.885-6.437 6.44-6.441zM12.348 19.54l-.046.107.536.227c.397.236.824.416 1.27.535l.567.24.047-.112c.243.042.489.067.736.073.916-.005 1.816-.255 2.603-.728l4.565 4.565 1.822-1.821-4.566-4.565c.472-.787.724-1.685.728-2.603-.006-.247-.03-.493-.073-.735l.111-.048-.24-.567c-.118-.446-.298-.873-.534-1.27l-.226-.536-.108.046c-.135-.188-.282-.366-.439-.533-2.039-1.949-5.248-1.949-7.286 0-2.012 2.011-2.012 5.273 0 7.285.167.158.346.305.533.44zm1.288-5.904c.647-.67 1.605-.939 2.505-.702.9.235 1.604.938 1.84 1.84.236.9-.033 1.857-.702 2.505-1.02.974-2.624.974-3.643 0-1.006-1.007-1.006-2.637 0-3.643zM67.513 60.33l.048-.114-.72-.304c-.253-.133-.518-.246-.79-.334l-.863-.363-.064.153c-1.143-.155-2.304.063-3.311.624l-4.575-4.576-1.822 1.822 4.565 4.565c-.472.786-.723 1.686-.728 2.603.008.247.03.493.073.736l-.111.046.24.567c.12.447.298.874.534 1.27l.227.537.108-.046c.135.187.281.365.44.533 1.293 1.34 3.209 1.876 5.01 1.406 1.802-.473 3.21-1.88 3.68-3.68.472-1.802-.066-3.718-1.405-5.012-.168-.157-.347-.302-.536-.433zm-1.288 5.898c-1.019.973-2.624.973-3.643 0-1.006-1.007-1.006-2.638 0-3.644 1.006-1.006 2.637-1.006 3.643 0 1.007 1.006 1.007 2.637 0 3.644zM74.711 34.78c-.247.006-.494.031-.738.074l-.07-.165-1.124.477c-.049.02-.098.04-.146.062l-1.109.467.07.164c-.91.695-1.562 1.675-1.852 2.785h-6.623v2.576h6.623c.29 1.111.943 2.094 1.857 2.79l-.07.164 1.11.467c.047.022.096.041.145.062l1.12.472.069-.166c1.907.28 3.809-.531 4.929-2.1s1.268-3.63.385-5.344c-.883-1.713-2.648-2.788-4.576-2.786zm0 7.728c-1.423 0-2.576-1.153-2.576-2.576s1.153-2.577 2.576-2.577 2.576 1.154 2.576 2.577-1.153 2.576-2.576 2.576zM59.215 14.675l.11.048c-.041.242-.064.488-.072.735.005.918.256 1.816.728 2.603l-4.565 4.565 1.822 1.821 4.565-4.565c.786.473 1.686.723 2.603.728.247-.006.493-.03.736-.073l.046.111.568-.239c.445-.119.873-.299 1.27-.535l.535-.227-.045-.108c.187-.134.365-.28.533-.439 2.011-2.012 2.011-5.274 0-7.285-2.038-1.949-5.248-1.949-7.285 0-.159.167-.305.345-.44.533l-.108-.046-.227.536c-.236.397-.415.824-.534 1.27l-.24.567zm3.37-1.039c.646-.67 1.604-.939 2.505-.702.9.235 1.604.938 1.84 1.84.236.9-.033 1.857-.702 2.505-1.02.974-2.624.974-3.643 0-1.006-1.007-1.006-2.637 0-3.643zM50.593 11.072L51.592 8.7 53.74 9.605 52.74 11.978zM46.323 9.239L47.324 6.866 49.473 7.772 48.472 10.145zM54.887 12.885L55.886 10.513 58.033 11.417 57.034 13.789zM69.717 48.471L70.624 46.323 72.997 47.325 72.091 49.473zM66.095 57.066L67.001 54.916 69.374 55.918 68.468 58.066zM67.905 52.768L68.811 50.621 71.185 51.622 70.279 53.77zM26.05 70.262L27.049 67.889 29.196 68.794 28.197 71.166zM30.343 72.076L31.342 69.702 33.489 70.608 32.49 72.981zM21.795 68.468L22.797 66.094 24.947 67.001 23.946 69.374zM20.648 65.188l-.11-.046c.041-.243.066-.49.072-.736-.004-.917-.256-1.817-.728-2.603l4.566-4.565-1.822-1.822-4.576 4.576c-1.007-.56-2.168-.78-3.31-.624l-.065-.153-.862.364c-.273.087-.538.2-.79.333l-.721.304.048.114c-.19.131-.368.276-.535.433-1.34 1.294-1.878 3.21-1.405 5.012.471 1.8 1.878 3.207 3.68 3.68 1.8.47 3.717-.067 5.011-1.406.157-.168.304-.346.439-.533l.108.046.226-.536c.236-.397.416-.824.534-1.27l.24-.568zm-3.37 1.04c-1.019.973-2.623.973-3.642 0-1.006-1.007-1.006-2.638 0-3.644 1.006-1.006 2.638-1.006 3.643 0 1.006 1.006 1.006 2.637 0 3.644zM8.677 28.241L9.583 26.094 11.958 27.096 11.051 29.244zM6.866 32.54L7.772 30.391 10.147 31.392 9.24 33.542zM10.49 23.946L11.395 21.798 13.77 22.799 12.863 24.947zM6.865 47.323L9.239 46.322 10.146 48.471 7.772 49.472zM10.49 55.918L12.863 54.917 13.77 57.065 11.395 58.066zM8.679 51.621L11.052 50.619 11.958 52.768 9.584 53.769zM7.085 44.698c.049-.02.097-.04.145-.062l1.11-.468-.07-.163c.91-.695 1.563-1.676 1.852-2.785h6.624v-2.576h-6.624c-.29-1.112-.944-2.094-1.858-2.79l.07-.164-1.109-.467c-.048-.023-.097-.042-.145-.062l-1.12-.472-.07.165c-.243-.043-.49-.068-.737-.075C2.307 34.78 0 37.087 0 39.932c0 2.845 2.307 5.152 5.153 5.152.247-.007.494-.032.737-.075l.07.166 1.125-.477zm-4.508-4.766c0-1.423 1.153-2.577 2.576-2.577 1.422 0 2.576 1.154 2.576 2.577s-1.154 2.576-2.576 2.576c-1.423 0-2.576-1.153-2.576-2.576zM54.918 66.999L57.066 66.093 58.068 68.466 55.919 69.373zM46.322 70.624L48.471 69.718 49.472 72.091 47.323 72.999zM50.619 68.811L52.768 67.905 53.769 70.28 51.621 71.185zM44.698 72.779c-.02-.05-.04-.098-.062-.145l-.467-1.11-.164.07c-.695-.911-1.676-1.563-2.785-1.852v-6.624h-2.577v6.624c-1.11.29-2.093.943-2.79 1.857l-.163-.07-.468 1.11-.061.145-.472 1.12.165.069c-.348 2.022.536 4.057 2.252 5.183 1.716 1.125 3.936 1.125 5.651 0 1.716-1.126 2.601-3.16 2.253-5.183l.164-.07-.476-1.124zm-4.766 4.508c-1.423 0-2.576-1.153-2.576-2.576s1.153-2.576 2.576-2.576c1.422 0 2.576 1.153 2.576 2.576s-1.154 2.576-2.576 2.576zM66.093 22.798L68.466 21.796 69.373 23.946 66.999 24.947zM69.716 31.392L72.091 30.391 72.997 32.539 70.623 33.54zM67.906 27.094L70.28 26.093 71.185 28.241 68.811 29.242zM35.166 7.084c.02.05.04.099.062.146l.467 1.11.164-.07c.695.91 1.676 1.562 2.784 1.852v6.623h2.577v-6.623c1.112-.29 2.094-.943 2.79-1.858l.164.07.467-1.11c.022-.047.041-.095.062-.144l.471-1.12-.164-.07c.042-.243.067-.49.074-.738C45.084 2.307 42.777 0 39.932 0s-5.153 2.307-5.153 5.152c.008.248.032.495.075.739l-.165.069.477 1.124zm4.766-4.508c1.422 0 2.576 1.154 2.576 2.576 0 1.423-1.154 2.577-2.576 2.577-1.423 0-2.576-1.154-2.576-2.577 0-1.422 1.153-2.576 2.576-2.576zM21.796 11.395L23.944 10.489 24.946 12.863 22.798 13.768zM30.391 7.773L32.539 6.868 33.541 9.241 31.392 10.147zM26.095 9.584L28.243 8.679 29.244 11.052 27.096 11.958z" transform="translate(.033 .92)"/>
    </g>
</svg>
