<svg xmlns="http://www.w3.org/2000/svg" width="165" height="165" viewBox="0 0 165 165">
    <g fill="#F05B30">
        <path d="M145.353 32.703c0-2.92-3.02-3.772-5.373-4.288v8.493c2.622-.174 5.373-1.382 5.373-4.205zM137.357 14.604c-2.97.083-4.897 1.804-4.897 3.646 0 2.146 1.628 3.388 4.9 4.03l-.003-7.676z"/>
        <path d="M138.583 51.878c14.57 0 26.417-11.637 26.417-25.937S153.15 0 138.583 0C124.01 0 112.16 11.637 112.16 25.94c0 14.3 11.85 25.938 26.424 25.938zm-11.617-32.644c0-5.827 4.936-8.839 10.395-9.006V7.946c0-.737.565-1.463 1.304-1.463.746 0 1.315.726 1.315 1.463v2.282c3.4.087 10.397 2.184 10.397 6.396 0 1.671-1.272 2.655-2.754 2.655-2.846 0-2.8-4.588-7.64-4.675v8.151c5.771 1.2 10.874 2.875 10.874 9.48 0 5.745-4.367 8.665-10.874 9.053v2.652c0 .732-.568 1.462-1.315 1.462-.739 0-1.304-.73-1.304-1.462v-2.652c-7.38-.178-11.048-4.509-11.048-7.9 0-1.71 1.052-2.701 2.704-2.701 4.894 0 1.091 5.918 8.348 6.221V27.94c-6.478-1.158-10.402-3.943-10.402-8.706zM32.232 115.547H9.457c-4.194 0-7.59 3.34-7.59 7.458v33.544c.003 4.125 3.403 7.457 7.59 7.457h22.775c4.193 0 7.59-3.332 7.59-7.457v-33.544c.004-4.118-3.394-7.458-7.59-7.458zM91.093 89.46H68.318c-4.193 0-7.59 3.34-7.59 7.457v59.639c0 4.125 3.4 7.457 7.59 7.457h22.775c4.193 0 7.594-3.332 7.594-7.457v-59.65c0-4.107-3.397-7.446-7.594-7.446zM149.965 59.639h-22.771c-4.197 0-7.594 3.34-7.594 7.453v89.457c0 4.125 3.4 7.457 7.594 7.457h22.771c4.197 0 7.594-3.332 7.594-7.457V67.096c.004-4.118-3.397-7.457-7.594-7.457zM104.44 38.287l-18.851-3.87c-1.443-.293-2.929.255-3.813 1.41-.885 1.158-1.006 2.71-.313 3.992l4.179 7.715L2.055 89.872C.192 90.817-.54 93.068.423 94.89c.676 1.28 2.001 2.017 3.376 2.017.587 0 1.18-.13 1.738-.416l83.666-42.38 3.834 7.077c.66 1.222 1.95 1.979 3.35 1.979.065 0 .125-.004.193-.007 1.471-.074 2.768-.974 3.322-2.314l7.282-17.51c.426-1.026.37-2.181-.164-3.158-.536-.967-1.478-1.661-2.58-1.891z"/>
    </g>
</svg>
