<svg xmlns="http://www.w3.org/2000/svg" width="165" height="165" viewBox="0 0 165 165">
    <g fill="none" fill-rule="evenodd">
        <path fill="#F05B30" d="M12 5h113c5.523 0 10 4.477 10 10v19H2V15C2 9.477 6.477 5 12 5z"/>
        <path fill="#FFF8F6" d="M12 150h113c5.523 0 10-4.477 10-10V38H2v102c0 5.523 4.477 10 10 10z"/>
        <circle cx="127" cy="126" r="34" fill="#F05B30"/>
        <path fill="#F05B30" fill-rule="nonzero" d="M137.5 89.623V11c0-6.075-4.925-11-11-11H11C4.925 0 0 4.925 0 11v132c0 6.075 4.925 11 11 11h88.608c11.432 11.189 28.594 14.138 43.105 7.407 14.511-6.731 23.344-21.738 22.186-37.693-1.159-15.954-12.068-29.528-27.399-34.091zM11 5.5h115.5c3.038 0 5.5 2.462 5.5 5.5v22H5.5V11c0-3.038 2.462-5.5 5.5-5.5zM5.5 143V38.5H132v49.94c-15.177-2.225-30.224 4.79-38.278 17.845-8.054 13.055-7.572 29.65 1.227 42.215H11c-3.038 0-5.5-2.462-5.5-5.5zm121 16.5c-18.225 0-33-14.775-33-33s14.775-33 33-33 33 14.775 33 33c-.02 18.217-14.783 32.98-33 33z"/>
        <path fill="#FFF" fill-rule="nonzero" d="M19.25 27.5c4.556 0 8.25-3.694 8.25-8.25S23.806 11 19.25 11 11 14.694 11 19.25s3.694 8.25 8.25 8.25zm0-11c1.519 0 2.75 1.231 2.75 2.75S20.769 22 19.25 22s-2.75-1.231-2.75-2.75 1.231-2.75 2.75-2.75zM41.25 27.5c4.556 0 8.25-3.694 8.25-8.25S45.806 11 41.25 11 33 14.694 33 19.25s3.694 8.25 8.25 8.25zm0-11c1.519 0 2.75 1.231 2.75 2.75S42.769 22 41.25 22s-2.75-1.231-2.75-2.75 1.231-2.75 2.75-2.75zM90.75 27.5h27.5c4.556 0 8.25-3.694 8.25-8.25S122.806 11 118.25 11h-27.5c-4.556 0-8.25 3.694-8.25 8.25s3.694 8.25 8.25 8.25zm0-11h27.5c1.519 0 2.75 1.231 2.75 2.75S119.769 22 118.25 22h-27.5C89.231 22 88 20.769 88 19.25s1.231-2.75 2.75-2.75z"/>
        <path fill="#F05B30" fill-rule="nonzero" d="M55 74.25c6.075 0 11-4.925 11-11V49.5c0-1.519-1.231-2.75-2.75-2.75s-2.75 1.231-2.75 2.75v13.75c0 3.038-2.462 5.5-5.5 5.5s-5.5-2.462-5.5-5.5V49.5c0-1.519-1.231-2.75-2.75-2.75S44 47.981 44 49.5v13.75c0 6.075 4.925 11 11 11zM72.6 73.7c.583.438 1.317.626 2.039.522.722-.103 1.373-.489 1.811-1.072l6.05-8.066 6.05 8.066c.59.786 1.554 1.198 2.529 1.08.975-.117 1.814-.746 2.2-1.65.386-.903.26-1.944-.329-2.73l-7.013-9.35 7.013-9.35c.911-1.215.665-2.939-.55-3.85s-2.939-.665-3.85.55l-6.05 8.066-6.05-8.066c-.59-.786-1.554-1.198-2.529-1.08-.975.117-1.814.746-2.2 1.65-.386.903-.26 1.944.329 2.73l7.013 9.35-7.013 9.35c-.438.583-.626 1.317-.522 2.039.103.722.489 1.373 1.072 1.811zM19.25 115.5h22c4.556 0 8.25-3.694 8.25-8.25v-16.5c0-4.556-3.694-8.25-8.25-8.25h-22c-4.556 0-8.25 3.694-8.25 8.25v16.5c0 4.556 3.694 8.25 8.25 8.25zm-2.75-8.25V91.118L39.149 110H19.25c-1.519 0-2.75-1.231-2.75-2.75zM44 90.75v16.132L21.351 88H41.25c1.519 0 2.75 1.231 2.75 2.75zM55 85.25c0 1.519 1.231 2.75 2.75 2.75h44c1.519 0 2.75-1.231 2.75-2.75s-1.231-2.75-2.75-2.75h-44c-1.519 0-2.75 1.231-2.75 2.75zM79.75 121h-66c-1.519 0-2.75 1.231-2.75 2.75s1.231 2.75 2.75 2.75h66c1.519 0 2.75-1.231 2.75-2.75S81.269 121 79.75 121zM63.25 132h-49.5c-1.519 0-2.75 1.231-2.75 2.75s1.231 2.75 2.75 2.75h49.5c1.519 0 2.75-1.231 2.75-2.75S64.769 132 63.25 132zM88 96.25H57.75C56.231 96.25 55 97.481 55 99s1.231 2.75 2.75 2.75H88c1.519 0 2.75-1.231 2.75-2.75s-1.231-2.75-2.75-2.75zM82.5 110H57.75c-1.519 0-2.75 1.231-2.75 2.75s1.231 2.75 2.75 2.75H82.5c1.519 0 2.75-1.231 2.75-2.75S84.019 110 82.5 110z"/>
        <path fill="#FFF" fill-rule="nonzero" d="M123.75 118.25c0-6.075-4.925-11-11-11s-11 4.925-11 11 4.925 11 11 11 11-4.925 11-11zm-16.5 0c-.013-2.673 1.896-4.968 4.527-5.44 2.63-.474 5.22 1.013 6.138 3.523.918 2.51-.1 5.316-2.415 6.653V121c0-1.519-1.231-2.75-2.75-2.75S110 119.481 110 121v1.986c-1.696-.975-2.744-2.78-2.75-4.736zM140.25 107.25c-6.075 0-11 4.925-11 11s4.925 11 11 11 11-4.925 11-11-4.925-11-11-11zm2.75 15.736V121c0-1.519-1.231-2.75-2.75-2.75s-2.75 1.231-2.75 2.75v1.986c-2.156-1.245-3.207-3.783-2.563-6.187.645-2.405 2.824-4.077 5.313-4.077 2.49 0 4.668 1.672 5.313 4.077.644 2.404-.407 4.942-2.563 6.186zM134.75 134.75h-16.5c-3.038 0-5.5 2.462-5.5 5.5 0 7.594 6.156 13.75 13.75 13.75s13.75-6.156 13.75-13.75c0-1.459-.58-2.858-1.61-3.89-1.032-1.03-2.431-1.61-3.89-1.61zm-8.25 13.75c-4.556 0-8.25-3.694-8.25-8.25h16.5c0 4.556-3.694 8.25-8.25 8.25z"/>
    </g>
</svg>
