<svg xmlns="http://www.w3.org/2000/svg" width="53" height="48" viewBox="0 0 53 48">
    <path fill="#FFF" d="M51.19 27.598h-3.32c-.668-2.136-2.695-3.627-5.033-3.54-.26.01-.507-.103-.656-.301-1.069-1.424-2.407-2.964-3.869-4.455-.298-.305-.788-.31-1.094-.012-.305.298-.31.787-.011 1.091 1.415 1.443 2.708 2.93 3.736 4.301.454.604 1.182.946 1.953.918 1.41-.054 2.713.733 3.317 1.998h-7.408c-1.836 0-3.407 1.247-3.82 3.032l-.59 2.557c-.047.201-.224.342-.431.342H18.836c-.207 0-.384-.14-.43-.342l-.592-2.557c-.412-1.785-1.983-3.032-3.819-3.032H6.43c.682-2.762 3.168-4.753 6.1-4.753.644 0 1.28.097 1.89.29.868.272 1.815.008 2.413-.676 4.144-4.742 9.145-8.6 11.15-8.6 1.25 0 3.795 1.56 6.645 4.071.32.282.809.252 1.092-.068.283-.319.252-.807-.068-1.09-2.308-2.032-5.512-4.456-7.67-4.456-.654 0-1.427.232-2.267.632l-.013-.062c-.32-1.456-1.637-2.512-3.13-2.512h-1.806l.453-6.797c.062-.923-.265-1.84-.898-2.515-1.327-1.415-3.583-1.417-4.911-.001-.634.675-.962 1.592-.9 2.515l.454 6.797h-1.807c-1.492 0-2.808 1.057-3.13 2.513l-.742 3.374c-.092.416.172.828.59.92.418.09.83-.173.92-.59l.743-3.372c.166-.754.847-1.302 1.62-1.302h2.632c.447 0 .802-.377.772-.822l-.51-7.62c-.069-1.047.76-1.932 1.812-1.932s1.882.884 1.812 1.931l-.509 7.62c-.03.446.325.823.772.823h2.632c.773 0 1.454.548 1.62 1.301l.112.514c-.605.378-1.23.817-1.86 1.297l-.014-.063c-.122-.554-.623-.957-1.192-.957H14.49c-.569 0-1.07.403-1.192.957l-1.4 6.363c-.791.063-1.551.24-2.26.52l.382-1.74c.092-.416-.172-.828-.59-.92-.416-.09-.829.173-.92.589l-.677 3.076c-1.515 1.129-2.607 2.797-2.988 4.745H1.61c-.888 0-1.61.72-1.61 1.606v1.601c0 .886.722 1.606 1.61 1.606h.173L4.64 46.116C4.867 47.208 5.844 48 6.96 48H45.84c1.118 0 2.094-.792 2.321-1.884l2.857-13.705h.174c.887 0 1.609-.72 1.609-1.606v-1.6c0-.886-.722-1.607-1.61-1.607zM14.753 15.551h6.22l.123.558c-2.028 1.706-3.999 3.698-5.43 5.335-.192.222-.499.307-.78.218-.46-.144-.932-.245-1.41-.303l1.277-5.808zm36.5 15.254c0 .035-.028.063-.062.063H40.16c-1.1 0-2.04.747-2.287 1.816l-.623 2.692c-.193.838-.93 1.422-1.79 1.422H17.34c-.861 0-1.598-.584-1.792-1.422l-.622-2.692c-.247-1.07-1.188-1.816-2.288-1.816H9.555c-.427 0-.774.346-.774.772 0 .426.347.771.774.771h3.083c.375 0 .697.255.78.62l.623 2.692c.356 1.542 1.713 2.619 3.299 2.619h18.12c1.586 0 2.942-1.077 3.299-2.62l.622-2.69c.084-.366.405-.62.78-.62h9.276l-2.791 13.39c-.08.38-.419.655-.808.655H6.961c-.388 0-.728-.276-.807-.655l-2.791-13.39h2.582c.428 0 .774-.346.774-.772 0-.426-.346-.772-.774-.772H1.61c-.035 0-.063-.028-.063-.062v-1.602c0-.034.028-.062.063-.062h12.385c1.112 0 2.062.755 2.312 1.835l.591 2.557c.21.905 1.006 1.538 1.938 1.538h15.128c.931 0 1.729-.633 1.938-1.538l.59-2.557c.25-1.08 1.201-1.835 2.312-1.835H51.19c.035 0 .063.028.063.062v1.601z"/>
</svg>
