<svg xmlns="http://www.w3.org/2000/svg" width="47" height="48" viewBox="0 0 47 48">
    <g fill="#FFF">
        <path d="M38.4 30.4c0-.442-.358-.8-.8-.8h-3.2c-.442 0-.8.358-.8.8v2.4h4.8v-2.4z"/>
        <path d="M36 25.6c-5.744 0-10.4 4.656-10.4 10.4 0 5.744 4.656 10.4 10.4 10.4 5.744 0 10.4-4.656 10.4-10.4-.007-5.741-4.659-10.393-10.4-10.4zm6.4 16c0 1.325-1.075 2.4-2.4 2.4h-8c-1.325 0-2.4-1.075-2.4-2.4v-6.4c0-1.325 1.075-2.4 2.4-2.4v-2.4c0-1.325 1.075-2.4 2.4-2.4h3.2c1.325 0 2.4 1.075 2.4 2.4v2.4c1.325 0 2.4 1.075 2.4 2.4v6.4z"/>
        <path d="M40 34.4h-8c-.442 0-.8.358-.8.8v6.4c0 .442.358.8.8.8h8c.442 0 .8-.358.8-.8v-6.4c0-.442-.358-.8-.8-.8zm-3.2 5.453V41.6h-1.6v-1.747c-1.102-.39-1.763-1.517-1.565-2.669.197-1.152 1.196-1.994 2.365-1.994 1.169 0 2.168.842 2.365 1.994.198 1.152-.463 2.28-1.565 2.669z"/>
        <circle cx="36" cy="37.6" r="1"/>
        <path d="M15.392 45.984c-2.875-.637-5.544-1.988-7.76-3.928-.337-.277-.833-.242-1.128.08-.143.156-.215.365-.2.576.015.213.112.41.272.552 2.421 2.113 5.334 3.585 8.472 4.28.055.016.111.024.168.024.377-.001.703-.264.784-.632.01-.058.015-.117.016-.176-.002-.372-.26-.694-.624-.776zM1.904 32.08c-.087-.432-.502-.715-.936-.64-.433.085-.715.503-.632.936.6 3.157 1.98 6.113 4.015 8.6.157.182.385.287.625.288.184 0 .363-.065.504-.184.186-.15.294-.377.296-.616.001-.185-.064-.364-.184-.504-1.869-2.277-3.137-4.986-3.688-7.88zM26.824 44.664c0 .004-.004.008-.008.008l-.024.008c-2.368 1.14-4.964 1.727-7.592 1.72-.296 0-.6-.008-.913-.024-.213-.014-.422.06-.58.202-.158.144-.252.345-.259.558-.01.212.063.42.206.578.142.157.342.252.554.262.343.016.68.024.992.024 2.878.01 5.72-.636 8.312-1.888.278-.132.455-.412.456-.72-.002-.122-.03-.241-.08-.352-.196-.39-.666-.557-1.064-.376zM17.151 1.72c2.926-.34 5.89.056 8.625 1.152.094.038.195.057.296.056.378-.004.702-.273.775-.645.074-.37-.123-.743-.471-.891C24.097.467 21.66-.006 19.2 0c-.743-.002-1.486.04-2.224.128-.4.048-.703.382-.712.784-.001.035.001.07.008.104.05.436.443.75.88.704zM6.232 6.944c.213.002.418-.081.568-.232 2.09-2.072 4.663-3.59 7.487-4.416.204-.061.376-.199.48-.384.104-.185.127-.405.064-.608-.126-.422-.568-.664-.992-.544-3.082.898-5.89 2.554-8.167 4.816-.153.15-.24.354-.24.568 0 .213.083.417.232.568.15.15.355.234.568.232zM.84 17.736h.096c.404.003.747-.295.8-.696.358-2.923 1.444-5.71 3.16-8.104.255-.358.172-.855-.184-1.112-.36-.244-.85-.163-1.112.184C1.727 10.616.538 13.653.144 16.84c-.007.034-.01.07-.008.104.001.404.303.744.704.792zM.816 29.984c.435-.007.785-.357.792-.792.001-.009-.002-.018-.008-.024V20c0-.442-.358-.8-.8-.8-.442 0-.8.358-.8.8v9.2c.014.433.366.78.8.784h.016zM28.392 4.192c1.181.723 2.272 1.585 3.248 2.568 1.095 1.092 2.042 2.324 2.815 3.664.227.362.698.483 1.07.273.373-.21.515-.675.323-1.057 0-.008 0-.008-.008-.008-1.599-2.789-3.874-5.13-6.616-6.808-.377-.219-.86-.102-1.096.264-.078.125-.12.269-.12.416 0 .28.146.54.384.688zM35.704 13.072c.728 1.961 1.099 4.036 1.096 6.128v2.648c0 .442.358.8.8.8.442 0 .8-.358.8-.8V19.2c.005-2.28-.402-4.544-1.2-6.68-.157-.41-.611-.619-1.024-.472-.318.113-.53.414-.528.752.006.093.025.184.056.272zM7.976 7.8c-2.418 2.364-4.016 5.439-4.56 8.776-.01.047-.015.096-.016.144.007.387.29.714.672.776.042.007.085.01.128.008.392.004.728-.278.792-.664.491-3.005 1.93-5.774 4.104-7.904.154-.146.24-.348.24-.56.002-.213-.082-.417-.232-.568-.312-.306-.811-.31-1.128-.008zM34.4 22.528c.442 0 .8-.358.8-.8V19.2c.007-2.477-.568-4.922-1.68-7.136-.162-.335-.534-.514-.897-.432-.362.083-.62.404-.623.776 0 .128.03.254.087.368.999 1.994 1.517 4.194 1.513 6.424v2.528c0 .442.358.8.8.8zM29.376 9.024c.39.38.753.786 1.088 1.216.152.189.381.298.623.296.183.002.36-.057.505-.168.166-.132.272-.325.295-.536.024-.212-.037-.424-.168-.592l-.007-.008c-.377-.47-.78-.919-1.208-1.344-1.937-1.944-4.342-3.355-6.984-4.096-.015-.008-.032-.008-.047-.016h-.017c-.421-.107-.851.141-.968.56-.022.07-.033.143-.032.216.001.358.24.672.585.768 2.396.666 4.579 1.942 6.335 3.704zM3.704 32.792c.715 2.77 2.16 5.298 4.183 7.32.353.352.72.68 1.089.992.007.008.024.016.032.024 0 .004.004.008.008.008.143.113.32.175.503.176.239.001.465-.104.617-.288.118-.141.183-.32.183-.504.002-.24-.103-.469-.287-.624-.352-.288-.688-.6-1.008-.92-1.831-1.816-3.136-4.094-3.776-6.592-.112-.423-.542-.68-.968-.576-.207.054-.385.186-.497.368-.104.185-.135.402-.087.608.004 0 .008.004.008.008zM3.2 28.8c0 .248.008.464.016.672.017.43.37.768.8.768.011 0 .022-.002.032-.008.423-.017.76-.36.768-.784v-.04C4.8 29.2 4.8 29 4.8 28.8v-8.92c0-.442-.358-.8-.8-.8-.442 0-.8.358-.8.8v8.92zM20.072 4.824c.44.02.815-.313.847-.752.008-.21-.063-.416-.2-.576-.14-.16-.339-.256-.551-.264-.313-.024-.624-.032-.976-.032-3.048-.001-6.032.87-8.6 2.512-.23.145-.37.4-.368.672-.002.154.042.304.127.432.145.232.4.372.673.368.153.002.304-.043.431-.128 2.313-1.476 5-2.259 7.745-2.256.296 0 .583.008.872.024zM11.792 42.984c2.287 1.194 4.828 1.817 7.408 1.816.787.002 1.573-.057 2.351-.176.39-.055.68-.39.681-.784.001-.04-.001-.08-.008-.12-.069-.434-.47-.735-.905-.68-3.01.441-6.082-.074-8.783-1.472-.392-.194-.867-.046-1.08.336-.098.188-.118.406-.056.608.063.203.204.373.392.472zM7.24 17.928c-.213-.01-.42.065-.577.21-.157.144-.249.345-.255.558-.008.184-.008.352-.008.504v9.664c.002.442.362.798.804.796.442-.002.798-.362.796-.804V19.2c0-.136 0-.28.008-.44.008-.213-.07-.42-.216-.576-.142-.157-.34-.249-.552-.256zM31.2 23.304c.442 0 .8-.358.8-.8V19.2c.002-2.428-.689-4.807-1.992-6.856-.008-.016-.016-.024-.025-.04l-.007-.008c-.248-.358-.733-.46-1.104-.232-.23.145-.37.4-.368.672.001.153.046.303.128.432 1.156 1.8 1.77 3.893 1.768 6.032v3.304c0 .442.358.8.8.8zM7.048 15.16c-.025.083-.038.17-.04.256.002.345.224.65.552.76.08.025.164.038.248.04.345-.003.65-.225.76-.552 1.011-3.035 3.27-5.494 6.208-6.76.196-.08.352-.236.432-.432.073-.2.07-.419-.008-.616-.182-.397-.642-.582-1.049-.424 0 0 0 .008-.007.008-3.354 1.449-5.934 4.256-7.096 7.72zM14.087 40.456c.31.001.594-.176.729-.456.048-.111.072-.231.071-.352-.002-.305-.18-.582-.455-.712-1.168-.555-2.232-1.307-3.145-2.224-1.328-1.318-2.302-2.95-2.832-4.744-.134-.42-.575-.66-1-.544-.202.06-.371.199-.472.384-.104.185-.127.405-.064.608 1.04 3.507 3.525 6.405 6.832 7.968.106.048.22.073.336.072zM27.112 10.984c.23 0 .448-.1.6-.272.288-.333.256-.835-.072-1.128-2.744-2.414-6.39-3.538-10.016-3.088h-.016c-.398.052-.695.39-.696.792 0 .035.001.07.007.104.065.431.455.737.889.696h.016c3.17-.401 6.358.58 8.752 2.696.149.129.34.2.536.2zM10.4 22.12c-.442 0-.8.358-.8.8v5.88c-.002 1.25.24 2.49.712 3.648.126.299.419.494.743.496.436-.006.79-.356.8-.792-.003-.106-.021-.211-.055-.312h-.008l-.009-.024c-.385-.959-.583-1.983-.583-3.016v-5.88c0-.442-.358-.8-.8-.8zM28 25.864c.442 0 .8-.358.8-.8V19.2c0-1.256-.245-2.5-.72-3.664-.175-.404-.64-.596-1.048-.432-.296.122-.491.408-.496.728-.002.104.017.207.056.304 0 .004.004.008.008.008 0 .015.006.03.016.04.385.959.584 1.983.584 3.016v5.864c0 .442.358.8.8.8zM14.792 12.52c.177-.116.3-.297.344-.504.04-.21 0-.427-.112-.608-.252-.358-.74-.457-1.112-.224C11.217 12.96 9.597 15.973 9.6 19.2v.632c.004.442.366.796.808.792.442-.004.796-.366.792-.808V19.2c-.003-2.69 1.347-5.2 3.592-6.68zM26.216 13.824c.324-.299.345-.803.048-1.128-.104-.112-.192-.2-.272-.288-2.356-2.34-5.748-3.308-8.984-2.56-.365.084-.625.409-.625.784 0 .062.009.124.025.184.106.425.532.688.96.592.601-.137 1.216-.207 1.832-.208 2.123-.008 4.16.836 5.655 2.344.073.072.153.152.232.24.155.162.369.255.593.256.2.003.393-.075.536-.216zM12.128 35.296c.096.104.191.208.28.296 1.8 1.803 4.244 2.814 6.792 2.808.732.002 1.463-.081 2.176-.248.361-.083.617-.405.616-.776-.002-.062-.007-.123-.016-.184-.106-.426-.53-.691-.96-.6-.596.137-1.205.207-1.816.208-2.123.006-4.16-.838-5.656-2.344-.086-.077-.166-.16-.24-.248-.307-.313-.804-.334-1.136-.048-.158.14-.251.34-.256.552-.01.212.065.419.207.576l.009.008zM14.351 15.024c-1 1.161-1.551 2.643-1.551 4.176v6.208c0 .442.358.8.8.8.442 0 .8-.358.8-.8V19.2c.004-1.15.415-2.26 1.16-3.136.125-.144.193-.33.191-.52.002-.232-.097-.454-.271-.608-.341-.271-.834-.233-1.129.088zM20.432 33.44c-1.431.38-2.958.079-4.137-.817-1.179-.896-1.878-2.286-1.895-3.767V28.8c0-.442-.358-.8-.8-.8-.442 0-.8.358-.8.8v.072c.053 3.5 2.899 6.315 6.4 6.328.554 0 1.105-.072 1.64-.216.292-.058.527-.274.61-.56.085-.285.003-.593-.21-.8-.215-.206-.526-.277-.808-.184zM24 19.184c.011.434.365.782.8.784h.008c.433-.01.783-.359.792-.792v-.064c-.063-3.494-2.905-6.298-6.4-6.312-.542.002-1.082.07-1.608.2-.205.054-.38.186-.488.368-.104.184-.136.401-.088.608.116.425.548.68.976.576.394-.103.8-.154 1.208-.152 2.616.01 4.746 2.105 4.8 4.72v.064z"/>
        <path d="M22.4 19.2c-.002-1.766-1.434-3.198-3.2-3.2-1.316-.01-2.5.796-2.976 2.024-.081.195-.079.415.008.608.083.197.242.353.44.432.41.155.87-.043 1.04-.448.237-.615.83-1.02 1.488-1.016.883.003 1.597.717 1.6 1.6v1.928c0 .442.358.8.8.8l.024-.008c.43-.013.772-.362.776-.792V19.2zM16.8 20.352c-.442 0-.8.358-.8.8V28.8c.001.408.08.813.232 1.192.117.304.41.504.736.504.104-.002.206-.021.304-.056.198-.08.356-.235.438-.432.083-.197.084-.419.002-.616-.074-.189-.112-.39-.112-.592v-7.648c0-.442-.358-.8-.8-.8zM22.4 23.976c0-.442-.358-.8-.8-.8-.442 0-.8.358-.8.8V28.8c-.004.876-.708 1.587-1.584 1.6H19.2c-.212.003-.415.086-.568.232-.148.152-.23.356-.232.568-.002.213.081.418.232.568.15.15.355.234.568.232h.04c1.749-.028 3.154-1.45 3.16-3.2v-4.824z"/>
    </g>
</svg>
