<svg xmlns="http://www.w3.org/2000/svg" width="65" height="34" viewBox="0 0 65 34">
    <path fill="#F05B30" d="M4.785 33.664h15.547c.847 0 1.63-.274 2.268-.739.637.465 1.42.74 2.267.74h15.548c.847 0 1.63-.275 2.268-.74.637.465 1.42.74 2.267.74h15.547c2.13 0 3.863-1.734 3.863-3.864v-7.25c0-3.257-1.822-6.085-4.55-7.48 1.322-1.595 2.118-3.64 2.118-5.867 0-5.075-4.13-9.204-9.204-9.204-5.075 0-9.204 4.129-9.204 9.204 0 2.228.796 4.273 2.118 5.866-1.18.604-2.189 1.476-2.955 2.534-.767-1.058-1.776-1.93-2.956-2.534 1.322-1.593 2.118-3.638 2.118-5.866C41.845 4.129 37.715 0 32.64 0c-5.075 0-9.204 4.129-9.204 9.204 0 2.228.797 4.273 2.118 5.867-1.18.603-2.188 1.475-2.955 2.533-.767-1.058-1.776-1.93-2.956-2.534 1.322-1.593 2.118-3.638 2.118-5.866C21.762 4.13 17.633 0 12.558 0 7.484 0 3.355 4.129 3.355 9.204c0 2.228.796 4.273 2.117 5.867-2.727 1.395-4.55 4.225-4.55 7.48v7.25c0 2.13 1.733 3.863 3.863 3.863zm47.94-30.473c3.314 0 6.012 2.697 6.012 6.013 0 3.315-2.698 6.012-6.013 6.012s-6.012-2.696-6.012-6.012c0-3.316 2.697-6.013 6.012-6.013zm-4.146 14.227c1.247.631 2.655.99 4.145.99 1.49 0 2.898-.359 4.145-.99 2.48.432 4.3 2.568 4.3 5.133v7.25c0 .37-.3.672-.672.672H44.95c-.37 0-.671-.301-.671-.672v-7.25c-.001-2.564 1.82-4.701 4.3-5.133zM32.642 3.19c3.315 0 6.012 2.697 6.012 6.013 0 3.315-2.697 6.012-6.012 6.012-3.316 0-6.013-2.696-6.013-6.012 0-3.316 2.697-6.013 6.013-6.013zm-4.145 14.227c1.246.631 2.654.99 4.145.99 1.49 0 2.898-.359 4.144-.99 2.48.432 4.301 2.568 4.301 5.133v7.25c0 .37-.301.672-.672.672H24.868c-.37 0-.672-.301-.672-.672v-7.25c0-2.564 1.822-4.701 4.3-5.133zM12.559 3.19c3.315 0 6.012 2.697 6.012 6.013 0 3.315-2.697 6.012-6.012 6.012-3.315 0-6.013-2.697-6.013-6.012 0-3.316 2.698-6.013 6.013-6.013zm-8.446 19.36c0-2.564 1.822-4.701 4.3-5.133 1.248.631 2.655.99 4.146.99 1.49 0 2.898-.359 4.145-.99 2.48.432 4.3 2.568 4.3 5.133v7.25c0 .37-.3.672-.672.672H4.785c-.37 0-.672-.301-.672-.672v-7.25z"/>
</svg>
