<svg xmlns="http://www.w3.org/2000/svg" width="80" height="81" viewBox="0 0 80 81">
    <path fill="#F05B30" d="M40 .92c-22.119 0-40 17.882-40 40 0 22.12 17.881 40 40 40s40-17.88 40-40c0-22.118-17.881-40-40-40zM27.926 6.37c-2.11 2.96-3.91 6.086-5.415 9.358h-9.08c3.96-4.189 8.917-7.428 14.495-9.358zM10.57 19.129h10.503c-2.47 6.364-3.829 13.154-4.025 20.09H3.452c.344-7.509 2.928-14.43 7.117-20.09zm0 43.583c-4.189-5.66-6.773-12.58-7.117-20.09h13.595c.196 6.937 1.603 13.726 4.09 20.09H10.569zm2.862 3.403h9.162c1.522 3.272 3.321 6.43 5.399 9.39-5.595-1.93-10.585-5.185-14.56-9.39zM38.3 77.485c-1.702-.082-3.387-.278-5.023-.572-2.716-3.354-5.039-6.97-6.92-10.782h11.943v11.354zm0-14.773H24.802c-2.634-6.347-4.14-13.137-4.352-20.09h17.849v20.09zm0-23.493h-17.85c.214-6.936 1.702-13.742 4.32-20.09h13.53v20.09zm.016-23.492H26.323c1.898-3.845 4.221-7.46 6.953-10.782 1.636-.31 3.321-.49 5.039-.572v11.354zm31.116 3.402c4.189 5.66 6.79 12.565 7.117 20.09H62.953c-.196-6.936-1.603-13.726-4.09-20.09h10.568zm-2.862-3.402h-9.162c-1.522-3.272-3.321-6.43-5.415-9.391 5.611 1.93 10.601 5.186 14.577 9.39zM41.7 4.373c1.702.082 3.387.278 5.023.572 2.716 3.354 5.039 6.97 6.92 10.782H41.701V4.373zm0 14.756h13.497c2.634 6.332 4.14 13.137 4.352 20.09H41.701V19.13zm0 23.493h17.85c-.214 6.937-1.702 13.743-4.32 20.09h-13.53v-20.09zm-.016 34.847V66.115h11.992c-1.898 3.845-4.221 7.46-6.953 10.781-1.636.311-3.321.491-5.039.573zm10.307-1.963c2.078-2.961 3.877-6.119 5.382-9.39h9.21c-3.991 4.204-8.98 7.46-14.592 9.39zm6.822-12.794c2.454-6.364 3.844-13.153 4.123-20.09h13.627c-.343 7.51-2.928 14.43-7.116 20.09H58.814z"/>
</svg>
