<svg xmlns="http://www.w3.org/2000/svg" width="82" height="45" viewBox="0 0 82 45">
    <path fill="#F05B30" d="M79.195 2.318C77.98 1.198 76.329.507 74.663.42c-1.892-.098-3.664.577-4.984 1.897l-9.019 8.924c-.178-.308-.382-.6-.61-.87-1.11-1.318-2.732-2.043-4.568-2.043H42.856c-2.38 0-4.703-.309-6.902-.917-5.734-1.586-11.212-.428-15.843 3.352-1.883 1.537-3.257 3.21-4.125 4.428l-2.264-2.196c-.298-.29-.701-.453-1.116-.453h-.011c-.43.003-.846.181-1.144.49L.446 24.458c-.294.306-.455.717-.446 1.141.01.425.188.829.495 1.122l18.613 17.722c.308.294.704.44 1.1.44.415 0 .83-.16 1.143-.481l10.902-11.185c.297-.306.463-.723.455-1.15-.008-.421-.185-.827-.487-1.12l-.95-.921 2.174-.245c1.314-.153 2.65-.23 3.974-.23h19.209c3.121 0 5.772-.683 7.88-2.03l.052-.034c.755-.525 1.44-1.146 2.035-1.848L79.54 10.41c2.215-2.606 2.077-5.858-.345-8.092zM20.166 41.044L3.858 25.515l8.785-9.12 16.214 15.733-8.69 8.916zM77.11 8.343l-12.945 15.23c-.411.482-.882.912-1.401 1.276-1.582 1.002-3.646 1.51-6.135 1.51h-19.21c-1.445 0-2.906.085-4.336.252l-4.776.536-10-9.705c.695-1.03 1.972-2.696 3.823-4.207 3.848-3.14 8.213-4.066 12.974-2.749 2.477.685 5.085 1.033 7.753 1.033h12.626c2.267 0 2.872 1.964 2.872 3.125 0 .847-.272 1.654-.747 2.214-.514.606-1.247.913-2.175.913h-10.99c-.882 0-1.596.714-1.596 1.596 0 .88.714 1.595 1.595 1.595h10.99c1.856 0 3.492-.724 4.608-2.038.93-1.093 1.459-2.53 1.504-4.066L71.93 4.58c1.484-1.485 3.804-1.112 5.101.084.671.62 1.573 1.92.078 3.679z"/>
</svg>
