<svg xmlns="http://www.w3.org/2000/svg" width="44" height="47" viewBox="0 0 44 47">
    <g fill="#FFF">
        <path d="M21.812 3.967c-6.247-.006-12.04 3.258-15.273 8.604-3.232 5.346-3.43 11.994-.524 17.524.007.014.006.03.014.042l.044.078c.073.137.155.268.232.403.159.278.328.557.508.836.133.206.268.41.41.61.03.043.054.09.089.128.185.258.38.515.587.771.145.179.3.357.452.536.057.067.11.134.17.2l.207.228c.063.07.132.136.197.205.197.207.4.408.607.605.118.112.233.224.357.335l.258.233c.046.041.096.078.142.119.127.107.255.213.385.317.048.039.094.08.143.118.149.117.302.23.504.377.055.04.113.075.168.115.219.156.44.309.665.455.04.026.079.055.12.081.22.14.446.276.725.44l.149.083c.089.051.178.104.267.152l.083.046c.376.199.759.383 1.15.555l.088.037c.105.046.21.09.314.131l.09.039c.423.17.852.334 1.289.47l.046.014c.044.015.09.025.134.04l.095.028c.427.126.858.237 1.293.332l.05.01c.094.02.188.043.283.062l.018.004c.493.098 1 .179 1.508.23h.016c.098.011.196.018.293.027h.019c.614.056 1.133.082 1.632.082.499 0 1.011-.026 1.625-.08h.016c.134-.013.268-.029.4-.044h.022c.447-.05.888-.117 1.322-.202l.062-.01c.064-.013.13-.021.195-.035h.02c.477-.1.964-.224 1.49-.383l.044-.014c.09-.028.178-.06.268-.09l.016-.005.09-.03c.367-.12.73-.254 1.092-.4l.128-.05.028-.01.184-.076.076-.031c.443-.192.878-.4 1.303-.625.028-.014.055-.03.081-.045.027-.016.067-.039.101-.057l.116-.066.129-.074c.296-.169.587-.346.919-.562.04-.025.077-.052.117-.077l.211-.14.119-.08c.329-.23.65-.47.965-.721l.107-.09c.085-.068.167-.14.25-.211l.193-.163c.226-.197.446-.398.666-.605l.133-.133.234-.234c.044-.046.09-.09.134-.135.19-.197.371-.4.548-.604.04-.044.076-.089.114-.138.158-.184.312-.37.463-.56.039-.049.08-.095.12-.145.17-.22.34-.442.5-.67.027-.039.05-.08.078-.117.089-.126.168-.253.251-.38l.101-.15c.127-.2.25-.404.37-.61l.082-.137.079-.142c.059-.103.12-.205.179-.31.014-.026.03-.052.043-.078.007-.013.007-.027.014-.04 2.914-5.531 2.718-12.186-.516-17.537-3.234-5.35-9.034-8.616-15.286-8.606zm0 1.785c5.442-.009 10.518 2.744 13.48 7.31 2.962 4.567 3.407 10.324 1.18 15.291l-2.236-1.679-.83-4.966-.892-7.14c-.033-.265-.181-.5-.406-.644l-9.817-6.248c-.292-.186-.666-.186-.959 0l-9.817 6.248c-.224.143-.373.38-.406.643l-.887 7.104-.834 4.999-2.238 1.679C4.926 23.382 5.372 17.626 8.334 13.06c2.962-4.565 8.036-7.317 13.478-7.309zM35.27 30.561c-.082.128-.167.255-.253.382-.189.273-.39.535-.596.796-.15.192-.305.38-.465.564-.218.252-.44.503-.674.74-.082.085-.166.169-.25.252-.268.267-.554.52-.843.765-.09.078-.179.155-.268.23-.344.28-.701.547-1.07.802l-.164.108c-.371.248-.753.48-1.145.697l-.12.068c-.424.23-.86.44-1.305.63l-.21.084c-.38.157-.766.298-1.16.425l-.268.09c-.458.138-.924.261-1.397.356l-.19.034c-.388.076-.782.133-1.18.179-.017 0-.033.005-.05.008h-.004c-.129.015-.26.03-.39.042h-.017c-.178.016-.368.018-.553.028v-8.078l7.31-7.312c.349-.35.349-.914 0-1.263l-7.572-7.573c-.348-.349-.913-.349-1.262 0l-7.572 7.573c-.349.35-.349.914 0 1.263l7.316 7.312v8.078c-.19-.01-.384-.012-.573-.03l-.293-.027c-.465-.051-.924-.121-1.377-.21l-.267-.058c-.434-.094-.862-.203-1.283-.33l-.121-.037c-.433-.135-.855-.295-1.272-.465-.1-.041-.202-.083-.303-.127-.404-.179-.804-.365-1.186-.572-.07-.038-.147-.082-.228-.129-.314-.178-.619-.364-.92-.558-.178-.12-.362-.246-.554-.38-.25-.177-.498-.356-.738-.551-.132-.106-.262-.214-.393-.325-.156-.133-.303-.273-.453-.412-.3-.276-.586-.556-.85-.839-.13-.138-.258-.278-.383-.421-.163-.187-.324-.374-.476-.564-.19-.24-.374-.486-.551-.737-.187-.267-.353-.525-.516-.785-.067-.108-.133-.216-.197-.325l2.76-2.071c.183-.138.307-.34.344-.567l.899-5.392.84-6.724 8.984-5.716 8.983 5.716.846 6.761.893 5.355c.037.227.16.43.344.567l2.76 2.07c-.12.203-.238.406-.367.603zm-13.46-2.431l-6.31-6.311 6.31-6.312 6.311 6.312-6.31 6.31z"/>
        <path d="M42.388 0l-6.23 6.23c-8.1-7.474-20.58-7.474-28.68 0L1.248 0 0 1.249l6.23 6.229c-7.474 8.1-7.474 20.58 0 28.68L0 42.388l1.249 1.248 6.229-6.229c8.1 7.473 20.58 7.473 28.68 0l6.23 6.23 1.248-1.25-6.229-6.229c7.473-8.1 7.473-20.58 0-28.68l6.23-6.23L42.386 0zm-20.57 41.246c-10.73 0-19.427-8.698-19.427-19.428S11.088 2.391 21.818 2.391s19.428 8.697 19.428 19.427c-.012 10.725-8.703 19.416-19.428 19.428z"/>
        <path d="M17.851 21.783L18.37 19.835 20.826 20.862 20.309 22.81zM22.81 20.861L25.267 19.835 25.785 21.783 23.328 22.81zM20.826 44.628L22.81 44.628 22.81 46.612 20.826 46.612zM16.86 44.628L18.843 44.628 18.843 46.612 16.86 46.612zM24.793 44.628L26.777 44.628 26.777 46.612 24.793 46.612z"/>
    </g>
</svg>
